<svg width="324" height="74" viewBox="0 0 324 74" fill="none" xmlns="http://www.w3.org/2000/svg">
<path d="M20.4979 0.0949707L40.2939 9.26855L40.09 10.2361H35.5953V20.5671L37.2984 23.5626L37.3661 23.6804V39.0404L39.3641 41.8568L39.4578 41.9894V74H1.13006V41.9894L1.22382 41.8568L3.22179 39.0404V23.6804L3.28945 23.5626L4.99261 20.5671V10.2361H0.497899L0.293945 9.26855L20.09 0.0949707L20.2939 0L20.4979 0.0949707ZM2.78972 9.22304H5.98241V20.8411L4.21159 23.9524V39.3698L4.11686 39.5024L2.11986 42.3179V72.987H38.468V42.3179L36.471 39.5024L36.3763 39.3698V23.9524L34.6055 20.8411V9.22304H37.7982L20.2939 1.11096L2.78972 9.22304Z" fill="white"/>
<path d="M20 44C21.6569 44.0001 23 45.2186 23 46.7217V64H17V46.7217C17 45.2185 18.3431 44 20 44ZM20 45C18.8015 45 18 45.8603 18 46.7217V63H22V46.7217C22 45.8603 21.1985 45.0001 20 45Z" fill="white"/>
<path d="M14 48C15.1045 48 15.9999 48.9968 16 50.2266V64H12V50.2266C12.0001 48.9968 12.8954 48 14 48ZM14 49C13.546 49 13.0001 49.4454 13 50.2266V63H15V50.2266C14.9999 49.4455 14.454 49 14 49Z" fill="white"/>
<path d="M26 48C27.1045 48 27.9999 48.9968 28 50.2266V64H24V50.2266C24.0001 48.9968 24.8954 48 26 48ZM26 49C25.546 49 25.0001 49.4454 25 50.2266V63H27V50.2266C26.9999 49.4455 26.454 49 26 49Z" fill="white"/>
<path d="M17.1272 11H19.1272V13H17.1272V11Z" fill="white"/>
<path d="M17.1272 15H19.1272V17H17.1272V15Z" fill="white"/>
<path d="M21.1272 11H23.1272V13H21.1272V11Z" fill="white"/>
<path d="M21.1272 15H23.1272V17H21.1272V15Z" fill="white"/>
<path d="M30 50.166C30 47.9673 25.8824 43.5993 20.1348 42.0361L20 42L19.8652 42.0361C14.1177 43.5994 10 47.9673 10 50.166V66H30V50.166ZM31 67H9V50.166C9 47.4806 13.4556 42.7433 19.6035 41.0713L19.7393 41.0342L20 40.9639L20.2617 41.0342L20.3955 41.0713H20.3975C26.5453 42.7434 31 47.4807 31 50.166V67Z" fill="white"/>
<rect opacity="0.5" x="4" y="24" width="3" height="1" fill="white"/>
<rect opacity="0.5" x="4" y="38" width="3" height="1" fill="white"/>
<rect opacity="0.5" x="33" y="38" width="4" height="1" fill="white"/>
<rect opacity="0.5" x="33" y="24" width="4" height="1" fill="white"/>
<path d="M68.1608 19.9726H73.4619L73.602 20.3611H67.9608L68.1608 19.9726ZM78.0629 25.4691C78.1162 25.4691 78.1429 25.508 78.1429 25.5857C78.1429 25.6633 78.1162 25.7022 78.0629 25.7022C77.8095 25.7022 77.4161 25.6892 76.8826 25.6633C76.3492 25.6375 75.9624 25.6245 75.7224 25.6245C75.429 25.6245 75.0556 25.6375 74.6022 25.6633C74.1754 25.6892 73.8487 25.7022 73.622 25.7022C73.5686 25.7022 73.5419 25.6633 73.5419 25.5857C73.5419 25.508 73.5686 25.4691 73.622 25.4691C74.1287 25.4691 74.4888 25.4238 74.7022 25.3332C74.9289 25.2425 75.0422 25.0807 75.0422 24.8476C75.0422 24.6534 74.9622 24.3815 74.8022 24.0319L70.3613 14.9228L70.8614 14.3207L66.9806 23.2356C66.7939 23.6758 66.7005 24.0383 66.7005 24.3232C66.7005 25.0872 67.354 25.4691 68.6609 25.4691C68.7276 25.4691 68.761 25.508 68.761 25.5857C68.761 25.6633 68.7276 25.7022 68.6609 25.7022C68.4209 25.7022 68.0742 25.6892 67.6207 25.6633C67.114 25.6375 66.6739 25.6245 66.3005 25.6245C65.9537 25.6245 65.5536 25.6375 65.1002 25.6633C64.7001 25.6892 64.3667 25.7022 64.1 25.7022C64.0333 25.7022 64 25.6633 64 25.5857C64 25.508 64.0333 25.4691 64.1 25.4691C64.4734 25.4691 64.7868 25.4044 65.0402 25.2749C65.3069 25.1325 65.5536 24.8929 65.7804 24.5563C66.0204 24.2067 66.2805 23.7082 66.5605 23.0608L70.7814 13.3884C70.8081 13.3496 70.8547 13.3302 70.9214 13.3302C70.9881 13.3302 71.0281 13.3496 71.0414 13.3884L75.7624 23.0413C76.2158 23.9995 76.6026 24.6469 76.9226 24.9836C77.2427 25.3073 77.6228 25.4691 78.0629 25.4691Z" fill="white"/>
<path d="M85.8274 24.0513C85.8274 24.4268 85.8674 24.6987 85.9474 24.867C86.0274 25.0354 86.1741 25.1519 86.3875 25.2166C86.6009 25.2684 86.9476 25.2943 87.4277 25.2943H89.6082C90.3683 25.2943 90.9751 25.0677 91.4285 24.6145C91.882 24.1614 92.182 23.5334 92.3287 22.7306C92.3287 22.6917 92.3621 22.6788 92.4287 22.6917C92.5088 22.6917 92.5488 22.7112 92.5488 22.75C92.4287 23.8247 92.3687 24.7117 92.3687 25.4109C92.3687 25.5144 92.3487 25.5921 92.3087 25.6439C92.2687 25.6828 92.1887 25.7022 92.0687 25.7022H82.8268C82.8001 25.7022 82.7868 25.6633 82.7868 25.5857C82.7868 25.508 82.8001 25.4691 82.8268 25.4691C83.3336 25.4691 83.7003 25.4368 83.927 25.372C84.1671 25.3073 84.3271 25.1843 84.4071 25.003C84.4871 24.8088 84.5271 24.5174 84.5271 24.129V15.1365C84.5271 14.748 84.4871 14.4631 84.4071 14.2819C84.3271 14.1006 84.1671 13.9776 83.927 13.9128C83.7003 13.8352 83.3336 13.7963 82.8268 13.7963C82.8001 13.7963 82.7868 13.7575 82.7868 13.6798C82.7868 13.6021 82.8001 13.5632 82.8268 13.5632L83.807 13.5827C84.3671 13.6086 84.8205 13.6215 85.1673 13.6215C85.5407 13.6215 86.0074 13.6086 86.5676 13.5827L87.5278 13.5632C87.5678 13.5632 87.5878 13.6021 87.5878 13.6798C87.5878 13.7575 87.5678 13.7963 87.5278 13.7963C87.0343 13.7963 86.6676 13.8352 86.4275 13.9128C86.1875 13.9776 86.0274 14.1071 85.9474 14.3013C85.8674 14.4826 85.8274 14.7674 85.8274 15.1559V24.0513Z" fill="white"/>
<path d="M100.494 24.0513C100.494 24.4268 100.534 24.6987 100.614 24.867C100.694 25.0354 100.841 25.1519 101.055 25.2166C101.268 25.2684 101.615 25.2943 102.095 25.2943H104.275C105.035 25.2943 105.642 25.0677 106.096 24.6145C106.549 24.1614 106.849 23.5334 106.996 22.7306C106.996 22.6917 107.029 22.6788 107.096 22.6917C107.176 22.6917 107.216 22.7112 107.216 22.75C107.096 23.8247 107.036 24.7117 107.036 25.4109C107.036 25.5144 107.016 25.5921 106.976 25.6439C106.936 25.6828 106.856 25.7022 106.736 25.7022H97.4938C97.4672 25.7022 97.4538 25.6633 97.4538 25.5857C97.4538 25.508 97.4672 25.4691 97.4938 25.4691C98.0006 25.4691 98.3673 25.4368 98.5941 25.372C98.8341 25.3073 98.9941 25.1843 99.0742 25.003C99.1542 24.8088 99.1942 24.5174 99.1942 24.129V15.1365C99.1942 14.748 99.1542 14.4631 99.0742 14.2819C98.9941 14.1006 98.8341 13.9776 98.5941 13.9128C98.3673 13.8352 98.0006 13.7963 97.4938 13.7963C97.4672 13.7963 97.4538 13.7575 97.4538 13.6798C97.4538 13.6021 97.4672 13.5632 97.4938 13.5632L98.474 13.5827C99.0341 13.6086 99.4876 13.6215 99.8343 13.6215C100.208 13.6215 100.674 13.6086 101.235 13.5827L102.195 13.5632C102.235 13.5632 102.255 13.6021 102.255 13.6798C102.255 13.7575 102.235 13.7963 102.195 13.7963C101.701 13.7963 101.335 13.8352 101.095 13.9128C100.855 13.9776 100.694 14.1071 100.614 14.3013C100.534 14.4826 100.494 14.7674 100.494 15.1559V24.0513Z" fill="white"/>
<path d="M123.051 15.8357C123.051 16.3406 123.177 16.7809 123.431 17.1564C123.684 17.5319 123.991 17.8491 124.351 18.1081C124.711 18.3541 125.218 18.6713 125.871 19.0598C126.565 19.4612 127.105 19.7978 127.491 20.0697C127.878 20.3416 128.205 20.6912 128.472 21.1185C128.752 21.5329 128.892 22.0314 128.892 22.614C128.892 23.2356 128.732 23.7988 128.412 24.3038C128.092 24.8088 127.618 25.2102 126.991 25.508C126.378 25.7928 125.638 25.9353 124.771 25.9353C123.744 25.9353 122.804 25.7087 121.95 25.2555C121.884 25.2166 121.837 25.1713 121.81 25.1195C121.797 25.0677 121.784 24.99 121.77 24.8865L121.51 22.245C121.497 22.1932 121.524 22.1609 121.59 22.1479C121.67 22.135 121.717 22.1544 121.73 22.2062C121.93 23.1255 122.324 23.9283 122.911 24.6145C123.497 25.2878 124.271 25.6245 125.231 25.6245C125.898 25.6245 126.458 25.4497 126.911 25.1001C127.378 24.7375 127.612 24.1678 127.612 23.3909C127.612 22.8083 127.478 22.3033 127.211 21.876C126.945 21.4487 126.618 21.0991 126.231 20.8272C125.858 20.5423 125.344 20.2122 124.691 19.8367C124.051 19.4612 123.544 19.1375 123.171 18.8655C122.811 18.5936 122.504 18.2505 122.25 17.8362C121.997 17.4218 121.87 16.9363 121.87 16.3795C121.87 15.7321 122.044 15.1818 122.39 14.7286C122.751 14.2625 123.211 13.9193 123.771 13.6992C124.344 13.4661 124.951 13.3496 125.591 13.3496C126.378 13.3496 127.158 13.505 127.932 13.8157C128.132 13.8805 128.232 13.9905 128.232 14.1459L128.372 16.3601C128.372 16.4248 128.332 16.4572 128.252 16.4572C128.185 16.4572 128.145 16.4313 128.132 16.3795C128.038 15.7062 127.758 15.0847 127.291 14.5149C126.825 13.9323 126.151 13.6409 125.271 13.6409C124.524 13.6409 123.964 13.8546 123.591 14.2819C123.231 14.6962 123.051 15.2141 123.051 15.8357Z" fill="white"/>
<path d="M138.058 19.9726H143.359L143.499 20.3611H137.858L138.058 19.9726ZM147.96 25.4691C148.013 25.4691 148.04 25.508 148.04 25.5857C148.04 25.6633 148.013 25.7022 147.96 25.7022C147.706 25.7022 147.313 25.6892 146.78 25.6633C146.246 25.6375 145.859 25.6245 145.619 25.6245C145.326 25.6245 144.953 25.6375 144.499 25.6633C144.072 25.6892 143.746 25.7022 143.519 25.7022C143.466 25.7022 143.439 25.6633 143.439 25.5857C143.439 25.508 143.466 25.4691 143.519 25.4691C144.026 25.4691 144.386 25.4238 144.599 25.3332C144.826 25.2425 144.939 25.0807 144.939 24.8476C144.939 24.6534 144.859 24.3815 144.699 24.0319L140.258 14.9228L140.758 14.3207L136.878 23.2356C136.691 23.6758 136.598 24.0383 136.598 24.3232C136.598 25.0872 137.251 25.4691 138.558 25.4691C138.625 25.4691 138.658 25.508 138.658 25.5857C138.658 25.6633 138.625 25.7022 138.558 25.7022C138.318 25.7022 137.971 25.6892 137.518 25.6633C137.011 25.6375 136.571 25.6245 136.197 25.6245C135.851 25.6245 135.451 25.6375 134.997 25.6633C134.597 25.6892 134.264 25.7022 133.997 25.7022C133.93 25.7022 133.897 25.6633 133.897 25.5857C133.897 25.508 133.93 25.4691 133.997 25.4691C134.37 25.4691 134.684 25.4044 134.937 25.2749C135.204 25.1325 135.451 24.8929 135.677 24.5563C135.917 24.2067 136.177 23.7082 136.458 23.0608L140.678 13.3884C140.705 13.3496 140.752 13.3302 140.818 13.3302C140.885 13.3302 140.925 13.3496 140.938 13.3884L145.659 23.0413C146.113 23.9995 146.5 24.6469 146.82 24.9836C147.14 25.3073 147.52 25.4691 147.96 25.4691Z" fill="white"/>
<path d="M156.004 24.129C156.004 24.5304 156.044 24.8217 156.125 25.003C156.205 25.1843 156.358 25.3073 156.585 25.372C156.825 25.4368 157.198 25.4691 157.705 25.4691C157.745 25.4691 157.765 25.508 157.765 25.5857C157.765 25.6633 157.745 25.7022 157.705 25.7022C157.305 25.7022 156.985 25.6957 156.745 25.6828L155.324 25.6633L153.944 25.6828C153.704 25.6957 153.377 25.7022 152.964 25.7022C152.924 25.7022 152.904 25.6633 152.904 25.5857C152.904 25.508 152.924 25.4691 152.964 25.4691C153.471 25.4691 153.837 25.4368 154.064 25.372C154.304 25.3073 154.464 25.1843 154.544 25.003C154.638 24.8088 154.684 24.5174 154.684 24.129V15.1365C154.684 14.748 154.638 14.4631 154.544 14.2819C154.464 14.1006 154.304 13.9776 154.064 13.9128C153.837 13.8352 153.471 13.7963 152.964 13.7963C152.924 13.7963 152.904 13.7575 152.904 13.6798C152.904 13.6021 152.924 13.5632 152.964 13.5632L153.944 13.5827C154.504 13.6086 154.964 13.6215 155.324 13.6215C155.724 13.6215 156.205 13.6086 156.765 13.5827L157.705 13.5632C157.745 13.5632 157.765 13.6021 157.765 13.6798C157.765 13.7575 157.745 13.7963 157.705 13.7963C157.211 13.7963 156.845 13.8352 156.605 13.9128C156.365 13.9905 156.205 14.1265 156.125 14.3207C156.044 14.502 156.004 14.7869 156.004 15.1753V24.129Z" fill="white"/>
<path d="M165.067 14.01L165.527 14.0488V23.5852C165.527 24.2585 165.647 24.744 165.887 25.0418C166.14 25.3267 166.541 25.4691 167.087 25.4691C167.127 25.4691 167.147 25.508 167.147 25.5857C167.147 25.6633 167.127 25.7022 167.087 25.7022C166.754 25.7022 166.501 25.6957 166.327 25.6828L165.327 25.6633L164.307 25.6828C164.12 25.6957 163.847 25.7022 163.487 25.7022C163.46 25.7022 163.447 25.6633 163.447 25.5857C163.447 25.508 163.46 25.4691 163.487 25.4691C164.06 25.4691 164.467 25.3267 164.707 25.0418C164.947 24.744 165.067 24.2585 165.067 23.5852V14.01ZM175.149 25.9353C175.149 25.9612 175.116 25.9806 175.049 25.9935C174.982 26.0065 174.936 26 174.909 25.9741L165.707 15.1559C165.28 14.6509 164.887 14.3013 164.527 14.1071C164.18 13.8999 163.833 13.7963 163.487 13.7963C163.447 13.7963 163.427 13.7575 163.427 13.6798C163.427 13.6021 163.447 13.5632 163.487 13.5632L164.227 13.5827C164.387 13.5956 164.607 13.6021 164.887 13.6021C165.18 13.6021 165.42 13.5956 165.607 13.5827C165.794 13.5697 165.94 13.5632 166.047 13.5632C166.14 13.5632 166.214 13.5891 166.267 13.6409C166.334 13.6798 166.407 13.7704 166.487 13.9128C166.647 14.1459 166.814 14.366 166.987 14.5732L174.989 24.1096L175.149 25.9353ZM175.149 25.9353L174.689 25.3332V15.6997C174.689 15.0264 174.569 14.5408 174.329 14.243C174.102 13.9452 173.715 13.7963 173.169 13.7963C173.142 13.7963 173.129 13.7575 173.129 13.6798C173.129 13.6021 173.142 13.5632 173.169 13.5632L173.949 13.5827C174.349 13.6086 174.676 13.6215 174.929 13.6215C175.169 13.6215 175.502 13.6086 175.929 13.5827L176.749 13.5632C176.789 13.5632 176.809 13.6021 176.809 13.6798C176.809 13.7575 176.789 13.7963 176.749 13.7963C176.189 13.7963 175.782 13.9452 175.529 14.243C175.276 14.5408 175.149 15.0264 175.149 15.6997V25.9353Z" fill="white"/>
<path d="M184.962 13.9128C184.135 13.9128 183.509 14.12 183.082 14.5344C182.668 14.9487 182.368 15.6544 182.182 16.6514C182.182 16.6773 182.142 16.6902 182.062 16.6902C181.995 16.6902 181.962 16.6773 181.962 16.6514C182.015 16.1853 182.075 15.5767 182.142 14.8257C182.208 14.0747 182.242 13.5115 182.242 13.136C182.242 13.0712 182.275 13.0388 182.342 13.0388C182.422 13.0388 182.462 13.0712 182.462 13.136C182.462 13.4208 182.822 13.5632 183.542 13.5632C184.689 13.6021 186.029 13.6215 187.563 13.6215C188.35 13.6215 189.183 13.6086 190.063 13.5827L191.424 13.5632C191.904 13.5632 192.257 13.5309 192.484 13.4661C192.724 13.4014 192.877 13.2719 192.944 13.0777C192.957 13.0259 192.997 13 193.064 13C193.131 13 193.164 13.0259 193.164 13.0777C193.124 13.4532 193.084 14.0229 193.044 14.7869C193.004 15.5508 192.984 16.1723 192.984 16.6514C192.984 16.6773 192.944 16.6902 192.864 16.6902C192.784 16.6902 192.744 16.6773 192.744 16.6514C192.704 15.6414 192.49 14.9358 192.104 14.5344C191.717 14.12 191.077 13.9128 190.183 13.9128C189.583 13.9128 189.156 13.9387 188.903 13.9905C188.65 14.0423 188.476 14.1524 188.383 14.3207C188.29 14.489 188.243 14.7739 188.243 15.1753V24.129C188.243 24.5304 188.29 24.8217 188.383 25.003C188.476 25.1843 188.656 25.3073 188.923 25.372C189.19 25.4368 189.61 25.4691 190.183 25.4691C190.223 25.4691 190.243 25.508 190.243 25.5857C190.243 25.6633 190.223 25.7022 190.183 25.7022C189.743 25.7022 189.39 25.6957 189.123 25.6828L187.563 25.6633L186.062 25.6828C185.796 25.6957 185.429 25.7022 184.962 25.7022C184.936 25.7022 184.922 25.6633 184.922 25.5857C184.922 25.508 184.936 25.4691 184.962 25.4691C185.536 25.4691 185.956 25.4368 186.222 25.372C186.489 25.3073 186.669 25.1843 186.763 25.003C186.869 24.8088 186.923 24.5174 186.923 24.129V15.1365C186.923 14.7351 186.876 14.4567 186.783 14.3013C186.689 14.133 186.516 14.0294 186.262 13.9905C186.009 13.9387 185.576 13.9128 184.962 13.9128Z" fill="white"/>
<path d="M200.781 15.8357C200.781 16.3406 200.908 16.7809 201.161 17.1564C201.415 17.5319 201.721 17.8491 202.081 18.1081C202.442 18.3541 202.948 18.6713 203.602 19.0598C204.295 19.4612 204.835 19.7978 205.222 20.0697C205.609 20.3416 205.936 20.6912 206.202 21.1185C206.482 21.5329 206.622 22.0314 206.622 22.614C206.622 23.2356 206.462 23.7988 206.142 24.3038C205.822 24.8088 205.349 25.2102 204.722 25.508C204.109 25.7928 203.368 25.9353 202.502 25.9353C201.475 25.9353 200.535 25.7087 199.681 25.2555C199.614 25.2166 199.568 25.1713 199.541 25.1195C199.528 25.0677 199.514 24.99 199.501 24.8865L199.241 22.245C199.228 22.1932 199.254 22.1609 199.321 22.1479C199.401 22.135 199.448 22.1544 199.461 22.2062C199.661 23.1255 200.054 23.9283 200.641 24.6145C201.228 25.2878 202.001 25.6245 202.962 25.6245C203.628 25.6245 204.189 25.4497 204.642 25.1001C205.109 24.7375 205.342 24.1678 205.342 23.3909C205.342 22.8083 205.209 22.3033 204.942 21.876C204.675 21.4487 204.349 21.0991 203.962 20.8272C203.588 20.5423 203.075 20.2122 202.422 19.8367C201.781 19.4612 201.275 19.1375 200.901 18.8655C200.541 18.5936 200.234 18.2505 199.981 17.8362C199.728 17.4218 199.601 16.9363 199.601 16.3795C199.601 15.7321 199.774 15.1818 200.121 14.7286C200.481 14.2625 200.941 13.9193 201.501 13.6992C202.075 13.4661 202.682 13.3496 203.322 13.3496C204.109 13.3496 204.889 13.505 205.662 13.8157C205.862 13.8805 205.962 13.9905 205.962 14.1459L206.102 16.3601C206.102 16.4248 206.062 16.4572 205.982 16.4572C205.916 16.4572 205.876 16.4313 205.862 16.3795C205.769 15.7062 205.489 15.0847 205.022 14.5149C204.555 13.9323 203.882 13.6409 203.002 13.6409C202.255 13.6409 201.695 13.8546 201.321 14.2819C200.961 14.6962 200.781 15.2141 200.781 15.8357Z" fill="white"/>
<path d="M228.619 13.3496C229.459 13.3496 230.166 13.4079 230.739 13.5244C231.312 13.6409 231.886 13.8416 232.459 14.1265C232.553 14.1783 232.606 14.2236 232.619 14.2625C232.633 14.3013 232.653 14.3984 232.679 14.5538L232.919 16.865C232.919 16.9039 232.879 16.9298 232.799 16.9427C232.733 16.9427 232.693 16.9233 232.679 16.8845C232.066 14.7221 230.692 13.6409 228.559 13.6409C227.438 13.6409 226.445 13.8805 225.578 14.3596C224.724 14.8386 224.064 15.5249 223.598 16.4183C223.131 17.2988 222.897 18.3282 222.897 19.5065C222.897 20.633 223.158 21.6688 223.678 22.614C224.198 23.5463 224.891 24.2844 225.758 24.8282C226.638 25.372 227.592 25.6439 228.619 25.6439C229.712 25.6439 230.599 25.385 231.279 24.867C231.959 24.3491 232.479 23.5593 232.839 22.4975C232.839 22.4716 232.873 22.4587 232.939 22.4587C233.033 22.4587 233.08 22.4781 233.08 22.5169L232.879 24.6534C232.866 24.8088 232.846 24.9059 232.819 24.9447C232.793 24.9836 232.739 25.0289 232.659 25.0807C231.966 25.4044 231.312 25.631 230.699 25.7605C230.099 25.8899 229.405 25.9547 228.619 25.9547C227.218 25.9547 225.965 25.6892 224.858 25.1584C223.764 24.6145 222.911 23.8571 222.297 22.886C221.684 21.9148 221.377 20.8013 221.377 19.5453C221.377 18.3282 221.691 17.2535 222.317 16.3212C222.944 15.376 223.804 14.6444 224.898 14.1265C226.005 13.6086 227.245 13.3496 228.619 13.3496Z" fill="white"/>
<path d="M249.534 15.1753C249.534 14.7869 249.487 14.502 249.394 14.3207C249.314 14.1265 249.154 13.9905 248.914 13.9128C248.674 13.8352 248.294 13.7963 247.773 13.7963C247.733 13.7963 247.713 13.7575 247.713 13.6798C247.713 13.6021 247.733 13.5632 247.773 13.5632L248.734 13.5827C249.32 13.6086 249.807 13.6215 250.194 13.6215C250.554 13.6215 251.014 13.6086 251.574 13.5827L252.554 13.5632C252.594 13.5632 252.614 13.6021 252.614 13.6798C252.614 13.7575 252.594 13.7963 252.554 13.7963C252.048 13.7963 251.674 13.8352 251.434 13.9128C251.194 13.9776 251.027 14.1006 250.934 14.2819C250.854 14.4631 250.814 14.748 250.814 15.1365V24.129C250.814 24.5174 250.854 24.8088 250.934 25.003C251.027 25.1843 251.194 25.3073 251.434 25.372C251.674 25.4368 252.048 25.4691 252.554 25.4691C252.594 25.4691 252.614 25.508 252.614 25.5857C252.614 25.6633 252.594 25.7022 252.554 25.7022C252.141 25.7022 251.814 25.6957 251.574 25.6828L250.194 25.6633L248.734 25.6828C248.494 25.6957 248.174 25.7022 247.773 25.7022C247.733 25.7022 247.713 25.6633 247.713 25.5857C247.713 25.508 247.733 25.4691 247.773 25.4691C248.294 25.4691 248.674 25.4368 248.914 25.372C249.154 25.3073 249.314 25.1843 249.394 25.003C249.487 24.8088 249.534 24.5174 249.534 24.129V15.1753ZM241.152 19.1763H250.094V19.5842H241.152V19.1763ZM240.572 15.1365C240.572 14.748 240.525 14.4631 240.432 14.2819C240.352 14.1006 240.192 13.9776 239.952 13.9128C239.712 13.8352 239.338 13.7963 238.832 13.7963C238.805 13.7963 238.792 13.7575 238.792 13.6798C238.792 13.6021 238.805 13.5632 238.832 13.5632L239.852 13.5827C240.412 13.6086 240.859 13.6215 241.192 13.6215C241.579 13.6215 242.066 13.6086 242.652 13.5827L243.613 13.5632C243.639 13.5632 243.653 13.6021 243.653 13.6798C243.653 13.7575 243.639 13.7963 243.613 13.7963C243.106 13.7963 242.726 13.8352 242.472 13.9128C242.232 13.9905 242.066 14.1265 241.972 14.3207C241.892 14.502 241.852 14.7869 241.852 15.1753V24.129C241.852 24.5174 241.892 24.8088 241.972 25.003C242.066 25.1843 242.232 25.3073 242.472 25.372C242.712 25.4368 243.092 25.4691 243.613 25.4691C243.639 25.4691 243.653 25.508 243.653 25.5857C243.653 25.6633 243.639 25.7022 243.613 25.7022C243.199 25.7022 242.872 25.6957 242.632 25.6828L241.192 25.6633L239.812 25.6828C239.572 25.6957 239.238 25.7022 238.812 25.7022C238.785 25.7022 238.772 25.6633 238.772 25.5857C238.772 25.508 238.785 25.4691 238.812 25.4691C239.318 25.4691 239.692 25.4368 239.932 25.372C240.185 25.3073 240.352 25.1843 240.432 25.003C240.525 24.8088 240.572 24.5174 240.572 24.129V15.1365Z" fill="white"/>
<path d="M268.733 15.6997C268.733 14.4308 268.153 13.7963 266.993 13.7963C266.953 13.7963 266.933 13.7575 266.933 13.6798C266.933 13.6021 266.953 13.5632 266.993 13.5632L267.853 13.5827C268.333 13.6086 268.713 13.6215 268.994 13.6215C269.22 13.6215 269.547 13.6086 269.974 13.5827L270.814 13.5632C270.841 13.5632 270.854 13.6021 270.854 13.6798C270.854 13.7575 270.841 13.7963 270.814 13.7963C269.747 13.7963 269.214 14.4308 269.214 15.6997V21.2156C269.214 22.7047 268.787 23.87 267.933 24.7117C267.08 25.5403 265.933 25.9547 264.493 25.9547C263.506 25.9547 262.639 25.7669 261.892 25.3914C261.159 25.0159 260.585 24.4851 260.172 23.7988C259.772 23.0996 259.572 22.2839 259.572 21.3516V15.1365C259.572 14.748 259.532 14.4631 259.452 14.2819C259.372 14.1006 259.212 13.9776 258.971 13.9128C258.745 13.8352 258.378 13.7963 257.871 13.7963C257.845 13.7963 257.831 13.7575 257.831 13.6798C257.831 13.6021 257.845 13.5632 257.871 13.5632L258.851 13.5827C259.412 13.6086 259.865 13.6215 260.212 13.6215C260.572 13.6215 261.045 13.6086 261.632 13.5827L262.552 13.5632C262.592 13.5632 262.612 13.6021 262.612 13.6798C262.612 13.7575 262.592 13.7963 262.552 13.7963C262.059 13.7963 261.692 13.8352 261.452 13.9128C261.225 13.9905 261.072 14.1265 260.992 14.3207C260.912 14.502 260.872 14.7869 260.872 15.1753V20.6718C260.872 22.1997 261.225 23.365 261.932 24.1678C262.639 24.9706 263.639 25.372 264.933 25.372C266.133 25.372 267.066 25.0095 267.733 24.2844C268.4 23.5463 268.733 22.5299 268.733 21.2351V15.6997Z" fill="white"/>
<path d="M286.342 25.7022C286.008 25.7022 285.368 25.1519 284.422 24.0513C283.488 22.9377 282.361 21.4099 281.041 19.4676L282.161 19.1374C283.321 20.756 284.288 22.0184 285.062 22.9248C285.848 23.8182 286.542 24.4656 287.142 24.867C287.742 25.2684 288.329 25.4691 288.902 25.4691C288.942 25.4691 288.962 25.508 288.962 25.5857C288.962 25.6633 288.942 25.7022 288.902 25.7022H286.342ZM281.301 13.505C282.354 13.505 283.168 13.738 283.741 14.2042C284.315 14.6703 284.602 15.2918 284.602 16.0687C284.602 16.755 284.395 17.383 283.981 17.9527C283.568 18.5095 283.008 18.9562 282.301 19.2928C281.608 19.6165 280.861 19.7784 280.061 19.7784C279.981 19.7784 279.681 19.759 279.16 19.7201V24.129C279.16 24.5304 279.2 24.8217 279.28 25.003C279.36 25.1843 279.514 25.3073 279.741 25.372C279.981 25.4368 280.354 25.4691 280.861 25.4691C280.901 25.4691 280.921 25.508 280.921 25.5857C280.921 25.6633 280.901 25.7022 280.861 25.7022C280.447 25.7022 280.121 25.6957 279.881 25.6828L278.5 25.6633L277.14 25.6828C276.9 25.6957 276.56 25.7022 276.12 25.7022C276.093 25.7022 276.08 25.6633 276.08 25.5857C276.08 25.508 276.093 25.4691 276.12 25.4691C276.627 25.4691 277 25.4368 277.24 25.372C277.48 25.2943 277.647 25.1648 277.74 24.9836C277.833 24.8023 277.88 24.5174 277.88 24.129V15.1365C277.88 14.748 277.833 14.4631 277.74 14.2819C277.66 14.1006 277.5 13.9776 277.26 13.9128C277.033 13.8352 276.667 13.7963 276.16 13.7963C276.12 13.7963 276.1 13.7575 276.1 13.6798C276.1 13.6021 276.12 13.5632 276.16 13.5632L277.14 13.5827C277.7 13.6086 278.154 13.6215 278.5 13.6215C278.794 13.6215 279.067 13.615 279.32 13.6021C279.574 13.5891 279.787 13.5762 279.961 13.5632C280.467 13.5244 280.914 13.505 281.301 13.505ZM283.241 16.632C283.241 15.622 283.008 14.8969 282.541 14.4567C282.088 14.0164 281.421 13.7963 280.541 13.7963C280.021 13.7963 279.661 13.887 279.46 14.0682C279.26 14.2495 279.16 14.6185 279.16 15.1753V19.254C279.48 19.3058 279.874 19.3317 280.341 19.3317C281.381 19.3317 282.121 19.1116 282.561 18.6713C283.015 18.2311 283.241 17.5513 283.241 16.632Z" fill="white"/>
<path d="M300.004 13.3496C300.844 13.3496 301.551 13.4079 302.125 13.5244C302.698 13.6409 303.272 13.8416 303.845 14.1265C303.938 14.1783 303.992 14.2236 304.005 14.2625C304.018 14.3013 304.038 14.3984 304.065 14.5538L304.305 16.865C304.305 16.9039 304.265 16.9298 304.185 16.9427C304.118 16.9427 304.078 16.9233 304.065 16.8845C303.452 14.7221 302.078 13.6409 299.944 13.6409C298.824 13.6409 297.83 13.8805 296.964 14.3596C296.11 14.8386 295.45 15.5249 294.983 16.4183C294.516 17.2988 294.283 18.3282 294.283 19.5065C294.283 20.633 294.543 21.6688 295.063 22.614C295.583 23.5463 296.277 24.2844 297.144 24.8282C298.024 25.372 298.977 25.6439 300.004 25.6439C301.098 25.6439 301.985 25.385 302.665 24.867C303.345 24.3491 303.865 23.5593 304.225 22.4975C304.225 22.4716 304.258 22.4587 304.325 22.4587C304.418 22.4587 304.465 22.4781 304.465 22.5169L304.265 24.6534C304.252 24.8088 304.232 24.9059 304.205 24.9447C304.178 24.9836 304.125 25.0289 304.045 25.0807C303.352 25.4044 302.698 25.631 302.085 25.7605C301.485 25.8899 300.791 25.9547 300.004 25.9547C298.604 25.9547 297.35 25.6892 296.243 25.1584C295.15 24.6145 294.296 23.8571 293.683 22.886C293.069 21.9148 292.763 20.8013 292.763 19.5453C292.763 18.3282 293.076 17.2535 293.703 16.3212C294.33 15.376 295.19 14.6444 296.283 14.1265C297.39 13.6086 298.631 13.3496 300.004 13.3496Z" fill="white"/>
<path d="M320.919 15.1753C320.919 14.7869 320.873 14.502 320.779 14.3207C320.699 14.1265 320.539 13.9905 320.299 13.9128C320.059 13.8352 319.679 13.7963 319.159 13.7963C319.119 13.7963 319.099 13.7575 319.099 13.6798C319.099 13.6021 319.119 13.5632 319.159 13.5632L320.119 13.5827C320.706 13.6086 321.193 13.6215 321.58 13.6215C321.94 13.6215 322.4 13.6086 322.96 13.5827L323.94 13.5632C323.98 13.5632 324 13.6021 324 13.6798C324 13.7575 323.98 13.7963 323.94 13.7963C323.433 13.7963 323.06 13.8352 322.82 13.9128C322.58 13.9776 322.413 14.1006 322.32 14.2819C322.24 14.4631 322.2 14.748 322.2 15.1365V24.129C322.2 24.5174 322.24 24.8088 322.32 25.003C322.413 25.1843 322.58 25.3073 322.82 25.372C323.06 25.4368 323.433 25.4691 323.94 25.4691C323.98 25.4691 324 25.508 324 25.5857C324 25.6633 323.98 25.7022 323.94 25.7022C323.527 25.7022 323.2 25.6957 322.96 25.6828L321.58 25.6633L320.119 25.6828C319.879 25.6957 319.559 25.7022 319.159 25.7022C319.119 25.7022 319.099 25.6633 319.099 25.5857C319.099 25.508 319.119 25.4691 319.159 25.4691C319.679 25.4691 320.059 25.4368 320.299 25.372C320.539 25.3073 320.699 25.1843 320.779 25.003C320.873 24.8088 320.919 24.5174 320.919 24.129V15.1753ZM312.538 19.1763H321.48V19.5842H312.538V19.1763ZM311.958 15.1365C311.958 14.748 311.911 14.4631 311.818 14.2819C311.738 14.1006 311.577 13.9776 311.337 13.9128C311.097 13.8352 310.724 13.7963 310.217 13.7963C310.191 13.7963 310.177 13.7575 310.177 13.6798C310.177 13.6021 310.191 13.5632 310.217 13.5632L311.237 13.5827C311.798 13.6086 312.244 13.6215 312.578 13.6215C312.964 13.6215 313.451 13.6086 314.038 13.5827L314.998 13.5632C315.025 13.5632 315.038 13.6021 315.038 13.6798C315.038 13.7575 315.025 13.7963 314.998 13.7963C314.491 13.7963 314.111 13.8352 313.858 13.9128C313.618 13.9905 313.451 14.1265 313.358 14.3207C313.278 14.502 313.238 14.7869 313.238 15.1753V24.129C313.238 24.5174 313.278 24.8088 313.358 25.003C313.451 25.1843 313.618 25.3073 313.858 25.372C314.098 25.4368 314.478 25.4691 314.998 25.4691C315.025 25.4691 315.038 25.508 315.038 25.5857C315.038 25.6633 315.025 25.7022 314.998 25.7022C314.585 25.7022 314.258 25.6957 314.018 25.6828L312.578 25.6633L311.197 25.6828C310.957 25.6957 310.624 25.7022 310.197 25.7022C310.171 25.7022 310.157 25.6633 310.157 25.5857C310.157 25.508 310.171 25.4691 310.197 25.4691C310.704 25.4691 311.077 25.4368 311.317 25.372C311.571 25.3073 311.738 25.1843 311.818 25.003C311.911 24.8088 311.958 24.5174 311.958 24.129V15.1365Z" fill="white"/>
<path d="M70.4194 35.976C68.6505 35.976 67.3095 36.4244 66.3966 37.3213C65.5121 38.2182 64.8702 39.7457 64.4708 41.9039C64.4708 41.96 64.3852 41.988 64.214 41.988C64.0713 41.988 64 41.96 64 41.9039C64.1141 40.8949 64.2425 39.5776 64.3852 37.952C64.5278 36.3263 64.5991 35.1071 64.5991 34.2943C64.5991 34.1542 64.6705 34.0841 64.8131 34.0841C64.9843 34.0841 65.0699 34.1542 65.0699 34.2943C65.0699 34.9109 65.8402 35.2192 67.3809 35.2192C69.8345 35.3033 72.7018 35.3453 75.9828 35.3453C77.6661 35.3453 79.4493 35.3173 81.3323 35.2613L84.2424 35.2192C85.2695 35.2192 86.0256 35.1492 86.5106 35.009C87.0241 34.8689 87.3522 34.5886 87.4949 34.1682C87.5234 34.0561 87.609 34 87.7517 34C87.8943 34 87.9656 34.0561 87.9656 34.1682C87.88 34.981 87.7944 36.2142 87.7089 37.8679C87.6233 39.5215 87.5805 40.8669 87.5805 41.9039C87.5805 41.96 87.4949 41.988 87.3237 41.988C87.1525 41.988 87.0669 41.96 87.0669 41.9039C86.9813 39.7177 86.5248 38.1902 85.6975 37.3213C84.8701 36.4244 83.5006 35.976 81.5891 35.976C80.3052 35.976 79.3922 36.032 78.8501 36.1441C78.3081 36.2563 77.9372 36.4945 77.7374 36.8589C77.5377 37.2232 77.4379 37.8398 77.4379 38.7087V58.0901C77.4379 58.959 77.5377 59.5896 77.7374 59.982C77.9372 60.3744 78.3223 60.6406 78.8929 60.7808C79.4635 60.9209 80.3622 60.991 81.5891 60.991C81.6747 60.991 81.7174 61.0751 81.7174 61.2432C81.7174 61.4114 81.6747 61.4955 81.5891 61.4955C80.6476 61.4955 79.8915 61.4815 79.3209 61.4535L75.9828 61.4114L72.7731 61.4535C72.2025 61.4815 71.4179 61.4955 70.4194 61.4955C70.3623 61.4955 70.3338 61.4114 70.3338 61.2432C70.3338 61.0751 70.3623 60.991 70.4194 60.991C71.6462 60.991 72.5449 60.9209 73.1155 60.7808C73.6861 60.6406 74.0713 60.3744 74.271 59.982C74.4992 59.5616 74.6134 58.9309 74.6134 58.0901V38.6246C74.6134 37.7558 74.5135 37.1532 74.3138 36.8168C74.1141 36.4525 73.7432 36.2282 73.2011 36.1441C72.659 36.032 71.7318 35.976 70.4194 35.976Z" fill="white"/>
<path d="M113.176 62C110.523 62 108.155 61.3974 106.072 60.1922C104.018 58.959 102.42 57.3053 101.279 55.2312C100.166 53.1291 99.6101 50.8448 99.6101 48.3784C99.6101 45.4915 100.352 43.025 101.835 40.979C103.319 38.9049 105.216 37.3493 107.527 36.3123C109.867 35.2753 112.249 34.7568 114.674 34.7568C117.385 34.7568 119.767 35.3874 121.821 36.6486C123.875 37.8819 125.444 39.5215 126.529 41.5676C127.641 43.6136 128.198 45.7858 128.198 48.0841C128.198 50.6346 127.513 52.975 126.143 55.1051C124.774 57.2352 122.934 58.9169 120.623 60.1502C118.34 61.3834 115.858 62 113.176 62ZM114.674 61.1171C116.614 61.1171 118.355 60.6547 119.895 59.7297C121.464 58.8048 122.691 57.4595 123.576 55.6937C124.489 53.8999 124.945 51.7558 124.945 49.2613C124.945 46.6266 124.446 44.2863 123.447 42.2402C122.449 40.1942 121.037 38.5966 119.211 37.4474C117.413 36.2983 115.302 35.7237 112.877 35.7237C109.738 35.7237 107.285 36.7187 105.516 38.7087C103.747 40.6987 102.863 43.4314 102.863 46.9069C102.863 49.5415 103.362 51.952 104.36 54.1381C105.359 56.2963 106.757 58.006 108.554 59.2673C110.352 60.5005 112.392 61.1171 114.674 61.1171Z" fill="white"/>
<path d="M140.635 61.4955C140.578 61.4955 140.55 61.4114 140.55 61.2432C140.55 61.0751 140.578 60.991 140.635 60.991C141.719 60.991 142.518 60.9209 143.032 60.7808C143.545 60.6406 143.888 60.3744 144.059 59.982C144.259 59.5616 144.358 58.9309 144.358 58.0901V38.6246C144.358 37.7838 144.259 37.1672 144.059 36.7748C143.888 36.3824 143.545 36.1161 143.032 35.976C142.547 35.8078 141.762 35.7237 140.678 35.7237C140.621 35.7237 140.592 35.6396 140.592 35.4715C140.592 35.3033 140.621 35.2192 140.678 35.2192H157.882C158.139 35.2192 158.267 35.3453 158.267 35.5976L158.353 40.7688C158.353 40.8529 158.267 40.9089 158.096 40.9369C157.953 40.9369 157.882 40.8949 157.882 40.8108C157.796 39.3253 157.34 38.1762 156.512 37.3634C155.685 36.5225 154.587 36.1021 153.217 36.1021H150.607C149.637 36.1021 148.909 36.1722 148.424 36.3123C147.939 36.4525 147.597 36.7047 147.397 37.0691C147.197 37.4334 147.097 37.966 147.097 38.6667V57.9219C147.097 58.8188 147.211 59.4775 147.44 59.8979C147.696 60.2903 148.182 60.5706 148.895 60.7387C149.637 60.9069 150.778 60.991 152.318 60.991C152.404 60.991 152.447 61.0751 152.447 61.2432C152.447 61.4114 152.404 61.4955 152.318 61.4955C151.149 61.4955 150.236 61.4815 149.579 61.4535L145.728 61.4114L142.818 61.4535C142.304 61.4815 141.577 61.4955 140.635 61.4955ZM155.699 52.2042C155.699 50.971 155.357 50.0881 154.672 49.5556C154.016 49.023 152.903 48.7568 151.334 48.7568H145.813V47.8739H151.463C152.975 47.8739 154.045 47.6496 154.672 47.2012C155.328 46.7247 155.656 45.968 155.656 44.9309C155.656 44.8749 155.742 44.8468 155.913 44.8468C156.084 44.8468 156.17 44.8749 156.17 44.9309L156.127 48.3363C156.127 49.1491 156.142 49.7658 156.17 50.1862L156.213 52.2042C156.213 52.2603 156.127 52.2883 155.956 52.2883C155.785 52.2883 155.699 52.2603 155.699 52.2042Z" fill="white"/>
<path d="M177.217 35.976C175.448 35.976 174.107 36.4244 173.194 37.3213C172.309 38.2182 171.667 39.7457 171.268 41.9039C171.268 41.96 171.182 41.988 171.011 41.988C170.868 41.988 170.797 41.96 170.797 41.9039C170.911 40.8949 171.04 39.5776 171.182 37.952C171.325 36.3263 171.396 35.1071 171.396 34.2943C171.396 34.1542 171.468 34.0841 171.61 34.0841C171.781 34.0841 171.867 34.1542 171.867 34.2943C171.867 34.9109 172.637 35.2192 174.178 35.2192C176.632 35.3033 179.499 35.3453 182.78 35.3453C184.463 35.3453 186.246 35.3173 188.129 35.2613L191.04 35.2192C192.067 35.2192 192.823 35.1492 193.308 35.009C193.821 34.8689 194.149 34.5886 194.292 34.1682C194.321 34.0561 194.406 34 194.549 34C194.691 34 194.763 34.0561 194.763 34.1682C194.677 34.981 194.592 36.2142 194.506 37.8679C194.42 39.5215 194.378 40.8669 194.378 41.9039C194.378 41.96 194.292 41.988 194.121 41.988C193.95 41.988 193.864 41.96 193.864 41.9039C193.779 39.7177 193.322 38.1902 192.495 37.3213C191.667 36.4244 190.298 35.976 188.386 35.976C187.102 35.976 186.189 36.032 185.647 36.1441C185.105 36.2563 184.734 36.4945 184.535 36.8589C184.335 37.2232 184.235 37.8398 184.235 38.7087V58.0901C184.235 58.959 184.335 59.5896 184.535 59.982C184.734 60.3744 185.119 60.6406 185.69 60.7808C186.261 60.9209 187.159 60.991 188.386 60.991C188.472 60.991 188.515 61.0751 188.515 61.2432C188.515 61.4114 188.472 61.4955 188.386 61.4955C187.445 61.4955 186.689 61.4815 186.118 61.4535L182.78 61.4114L179.57 61.4535C179 61.4815 178.215 61.4955 177.217 61.4955C177.159 61.4955 177.131 61.4114 177.131 61.2432C177.131 61.0751 177.159 60.991 177.217 60.991C178.443 60.991 179.342 60.9209 179.913 60.7808C180.483 60.6406 180.868 60.3744 181.068 59.982C181.296 59.5616 181.411 58.9309 181.411 58.0901V38.6246C181.411 37.7558 181.311 37.1532 181.111 36.8168C180.911 36.4525 180.54 36.2282 179.998 36.1441C179.456 36.032 178.529 35.976 177.217 35.976Z" fill="white"/>
<path d="M228.562 61.4955C227.849 61.4955 226.48 60.3043 224.454 57.9219C222.457 55.5115 220.046 52.2042 217.222 48L219.618 47.2853C222.1 50.7888 224.169 53.5215 225.824 55.4835C227.507 57.4174 228.99 58.8188 230.274 59.6877C231.558 60.5566 232.813 60.991 234.04 60.991C234.126 60.991 234.169 61.0751 234.169 61.2432C234.169 61.4114 234.126 61.4955 234.04 61.4955H228.562ZM217.778 35.0931C220.032 35.0931 221.772 35.5976 222.999 36.6066C224.226 37.6156 224.839 38.961 224.839 40.6426C224.839 42.1281 224.397 43.4875 223.513 44.7207C222.628 45.9259 221.43 46.8929 219.918 47.6216C218.434 48.3223 216.836 48.6727 215.125 48.6727C214.953 48.6727 214.311 48.6306 213.199 48.5465V58.0901C213.199 58.959 213.284 59.5896 213.456 59.982C213.627 60.3744 213.955 60.6406 214.44 60.7808C214.953 60.9209 215.752 60.991 216.836 60.991C216.922 60.991 216.965 61.0751 216.965 61.2432C216.965 61.4114 216.922 61.4955 216.836 61.4955C215.952 61.4955 215.253 61.4815 214.739 61.4535L211.786 61.4114L208.876 61.4535C208.363 61.4815 207.635 61.4955 206.694 61.4955C206.637 61.4955 206.608 61.4114 206.608 61.2432C206.608 61.0751 206.637 60.991 206.694 60.991C207.778 60.991 208.577 60.9209 209.09 60.7808C209.604 60.6126 209.961 60.3323 210.16 59.9399C210.36 59.5475 210.46 58.9309 210.46 58.0901V38.6246C210.46 37.7838 210.36 37.1672 210.16 36.7748C209.989 36.3824 209.647 36.1161 209.133 35.976C208.648 35.8078 207.864 35.7237 206.779 35.7237C206.694 35.7237 206.651 35.6396 206.651 35.4715C206.651 35.3033 206.694 35.2192 206.779 35.2192L208.876 35.2613C210.075 35.3173 211.045 35.3453 211.786 35.3453C212.414 35.3453 212.999 35.3313 213.541 35.3033C214.083 35.2753 214.54 35.2472 214.911 35.2192C215.995 35.1351 216.951 35.0931 217.778 35.0931ZM221.929 41.8619C221.929 39.6757 221.43 38.1061 220.431 37.1532C219.461 36.2002 218.035 35.7237 216.152 35.7237C215.039 35.7237 214.269 35.9199 213.841 36.3123C213.413 36.7047 213.199 37.5035 213.199 38.7087V47.5375C213.883 47.6496 214.725 47.7057 215.724 47.7057C217.949 47.7057 219.533 47.2292 220.474 46.2763C221.444 45.3233 221.929 43.8519 221.929 41.8619Z" fill="white"/>
<path d="M244.048 61.4955C243.991 61.4955 243.963 61.4114 243.963 61.2432C243.963 61.0751 243.991 60.991 244.048 60.991C245.132 60.991 245.917 60.9209 246.402 60.7808C246.915 60.6406 247.258 60.3744 247.429 59.982C247.629 59.5616 247.729 58.9309 247.729 58.0901V38.6246C247.729 37.7838 247.629 37.1672 247.429 36.7748C247.258 36.3824 246.915 36.1161 246.402 35.976C245.917 35.8078 245.132 35.7237 244.048 35.7237C243.991 35.7237 243.963 35.6396 243.963 35.4715C243.963 35.3033 243.991 35.2192 244.048 35.2192H261.252C261.509 35.2192 261.637 35.3453 261.637 35.5976L261.723 40.7688C261.723 40.8529 261.637 40.9089 261.466 40.9369C261.323 40.9369 261.252 40.8949 261.252 40.8108C261.166 39.3253 260.71 38.1762 259.883 37.3634C259.055 36.5225 257.957 36.1021 256.587 36.1021H253.977C252.978 36.1021 252.236 36.1862 251.751 36.3544C251.266 36.4945 250.924 36.7467 250.724 37.1111C250.553 37.4755 250.467 38.0501 250.467 38.8348V57.9219C250.467 58.6787 250.553 59.2533 250.724 59.6456C250.924 60.01 251.252 60.2623 251.709 60.4024C252.165 60.5425 252.878 60.6126 253.848 60.6126H257.272C258.641 60.6126 259.783 60.1361 260.696 59.1832C261.609 58.2302 262.222 56.9129 262.536 55.2312C262.536 55.1752 262.593 55.1471 262.707 55.1471C262.793 55.1471 262.864 55.1752 262.921 55.2312C263.007 55.2593 263.049 55.2873 263.049 55.3153C262.793 57.0811 262.664 58.9309 262.664 60.8649C262.664 61.0891 262.607 61.2573 262.493 61.3694C262.408 61.4535 262.236 61.4955 261.98 61.4955H244.048ZM259.583 51.6997C259.583 50.4665 259.269 49.5836 258.642 49.0511C258.042 48.5185 257.03 48.2523 255.603 48.2523H249.184V47.3694H255.731C257.101 47.3694 258.071 47.1451 258.642 46.6967C259.241 46.2482 259.54 45.4915 259.54 44.4264C259.54 44.3704 259.626 44.3423 259.797 44.3423C259.968 44.3423 260.054 44.3704 260.054 44.4264L260.011 47.8318C260.011 48.6446 260.025 49.2613 260.054 49.6817L260.097 51.6997C260.097 51.7558 260.011 51.7838 259.84 51.7838C259.669 51.7838 259.583 51.7558 259.583 51.6997Z" fill="white"/>
<path d="M275.593 61.4955C275.536 61.4955 275.508 61.4114 275.508 61.2432C275.508 61.0751 275.536 60.991 275.593 60.991C276.677 60.991 277.462 60.9209 277.947 60.7808C278.461 60.6406 278.803 60.3744 278.974 59.982C279.174 59.5616 279.274 58.9309 279.274 58.0901V38.6246C279.274 37.7838 279.174 37.1672 278.974 36.7748C278.803 36.3824 278.461 36.1161 277.947 35.976C277.462 35.8078 276.677 35.7237 275.593 35.7237C275.536 35.7237 275.508 35.6396 275.508 35.4715C275.508 35.3033 275.536 35.2192 275.593 35.2192H292.797C293.054 35.2192 293.182 35.3453 293.182 35.5976L293.268 40.7688C293.268 40.8529 293.182 40.9089 293.011 40.9369C292.869 40.9369 292.797 40.8949 292.797 40.8108C292.712 39.3253 292.255 38.1762 291.428 37.3634C290.6 36.5225 289.502 36.1021 288.132 36.1021H285.522C284.523 36.1021 283.782 36.1862 283.297 36.3544C282.812 36.4945 282.469 36.7467 282.269 37.1111C282.098 37.4755 282.013 38.0501 282.013 38.8348V57.9219C282.013 58.6787 282.098 59.2533 282.269 59.6456C282.469 60.01 282.797 60.2623 283.254 60.4024C283.71 60.5425 284.424 60.6126 285.394 60.6126H288.817C290.187 60.6126 291.328 60.1361 292.241 59.1832C293.154 58.2302 293.767 56.9129 294.081 55.2312C294.081 55.1752 294.138 55.1471 294.252 55.1471C294.338 55.1471 294.409 55.1752 294.466 55.2312C294.552 55.2593 294.595 55.2873 294.595 55.3153C294.338 57.0811 294.209 58.9309 294.209 60.8649C294.209 61.0891 294.152 61.2573 294.038 61.3694C293.953 61.4535 293.782 61.4955 293.525 61.4955H275.593ZM291.128 51.6997C291.128 50.4665 290.814 49.5836 290.187 49.0511C289.588 48.5185 288.575 48.2523 287.148 48.2523H280.729V47.3694H287.277C288.646 47.3694 289.616 47.1451 290.187 46.6967C290.786 46.2482 291.085 45.4915 291.085 44.4264C291.085 44.3704 291.171 44.3423 291.342 44.3423C291.513 44.3423 291.599 44.3704 291.599 44.4264L291.556 47.8318C291.556 48.6446 291.57 49.2613 291.599 49.6817L291.642 51.6997C291.642 51.7558 291.556 51.7838 291.385 51.7838C291.214 51.7838 291.128 51.7558 291.128 51.6997Z" fill="white"/>
<path d="M311.504 40.1381C311.504 41.2312 311.775 42.1842 312.317 42.997C312.859 43.8098 313.515 44.4965 314.285 45.0571C315.056 45.5896 316.14 46.2763 317.538 47.1171C319.021 47.986 320.177 48.7147 321.004 49.3033C321.832 49.8919 322.531 50.6486 323.101 51.5736C323.7 52.4705 324 53.5495 324 54.8108C324 56.1562 323.658 57.3754 322.973 58.4685C322.288 59.5616 321.275 60.4304 319.934 61.0751C318.622 61.6917 317.039 62 315.184 62C312.987 62 310.976 61.5095 309.15 60.5285C309.007 60.4444 308.907 60.3463 308.85 60.2342C308.822 60.1221 308.793 59.954 308.765 59.7297L308.208 54.012C308.18 53.8999 308.237 53.8298 308.38 53.8018C308.551 53.7738 308.651 53.8158 308.679 53.9279C309.107 55.9179 309.949 57.6557 311.204 59.1411C312.459 60.5986 314.114 61.3273 316.168 61.3273C317.595 61.3273 318.793 60.9489 319.763 60.1922C320.762 59.4074 321.261 58.1742 321.261 56.4925C321.261 55.2312 320.976 54.1381 320.405 53.2132C319.835 52.2883 319.136 51.5315 318.308 50.9429C317.509 50.3263 316.411 49.6116 315.013 48.7988C313.643 47.986 312.559 47.2853 311.76 46.6967C310.99 46.1081 310.334 45.3654 309.792 44.4685C309.25 43.5716 308.979 42.5205 308.979 41.3153C308.979 39.9139 309.35 38.7227 310.091 37.7417C310.862 36.7327 311.846 35.99 313.044 35.5135C314.271 35.009 315.569 34.7568 316.939 34.7568C318.622 34.7568 320.291 35.0931 321.946 35.7658C322.374 35.9059 322.588 36.1441 322.588 36.4805L322.887 41.2733C322.887 41.4134 322.802 41.4835 322.631 41.4835C322.488 41.4835 322.402 41.4274 322.374 41.3153C322.174 39.8579 321.575 38.5125 320.576 37.2793C319.578 36.018 318.137 35.3874 316.254 35.3874C314.656 35.3874 313.458 35.8499 312.659 36.7748C311.889 37.6717 311.504 38.7928 311.504 40.1381Z" fill="white"/>
</svg>
