<svg width="268" height="62" viewBox="0 0 268 62" fill="none" xmlns="http://www.w3.org/2000/svg">
<path d="M16.9551 0.0791423L33.3296 7.72379L33.1609 8.53005H29.443V17.1392L30.8518 19.6355L30.9078 19.7336V32.5336L32.5604 34.8807L32.638 34.9912V61.6667H0.934763V34.9912L1.01232 34.8807L2.66496 32.5336V19.7336L2.72093 19.6355L4.12971 17.1392V8.53005H0.411866L0.243164 7.72379L16.6177 0.0791423L16.7864 0L16.9551 0.0791423ZM2.30757 7.68587H4.94844V17.3676L3.48369 19.9603V32.8082L3.40533 32.9186L1.75349 35.2649V60.8225H31.8193V35.2649L30.1674 32.9186L30.0891 32.8082V19.9603L28.6243 17.3676V7.68587H31.2652L16.7864 0.9258L2.30757 7.68587Z" fill="#2E4028"/>
<path d="M16.5432 36.6667C17.9137 36.6667 19.0247 37.6821 19.0247 38.9347V53.3333H14.0618V38.9347C14.0618 37.6821 15.1727 36.6667 16.5432 36.6667ZM16.5432 37.5C15.5519 37.5 14.8889 38.2169 14.8889 38.9347V52.5H18.1976V38.9347C18.1976 38.2169 17.5346 37.5 16.5432 37.5Z" fill="#2E4028"/>
<path d="M11.5803 40C12.494 40 13.2346 40.8307 13.2347 41.8555V53.3333H9.92603V41.8555C9.92609 40.8307 10.6667 40 11.5803 40ZM11.5803 40.8333C11.2048 40.8333 10.7532 41.2045 10.7532 41.8555V52.5H12.4075V41.8555C12.4074 41.2046 11.9559 40.8334 11.5803 40.8333Z" fill="#2E4028"/>
<path d="M21.5061 40C22.4198 40 23.1604 40.8307 23.1604 41.8555V53.3333H19.8518V41.8555C19.8519 40.8307 20.5925 40 21.5061 40ZM21.5061 40.8333C21.1306 40.8333 20.679 41.2045 20.679 41.8555V52.5H22.3333V41.8555C22.3332 41.2046 21.8817 40.8334 21.5061 40.8333Z" fill="#2E4028"/>
<path d="M14.1272 9.16666H16.1272V10.8333H14.1272V9.16666Z" fill="#2E4028"/>
<path d="M14.1272 12.5H16.1272V14.1667H14.1272V12.5Z" fill="#2E4028"/>
<path d="M18.1272 9.16666H20.1272V10.8333H18.1272V9.16666Z" fill="#2E4028"/>
<path d="M18.1272 12.5H20.1272V14.1667H18.1272V12.5Z" fill="#2E4028"/>
<path d="M24.8147 41.805C24.8147 39.9727 21.4088 36.3328 16.6546 35.0301L16.5431 35L16.4316 35.0301C11.6775 36.3328 8.2715 39.9728 8.2715 41.805V55H24.8147V41.805ZM25.6419 55.8333H7.44434V41.805C7.44434 39.5671 11.1298 35.6194 16.2151 34.2261L16.3274 34.1951L16.5431 34.1366L16.7596 34.1951L16.8702 34.2261H16.8719C21.9571 35.6195 25.6419 39.5672 25.6419 41.805V55.8333Z" fill="#2E4028"/>
<rect opacity="0.5" x="3.30859" y="20" width="2.48148" height="0.833333" fill="#2E4028"/>
<rect opacity="0.5" x="3.30859" y="31.6667" width="2.48148" height="0.833333" fill="#2E4028"/>
<rect opacity="0.5" x="27.2964" y="31.6667" width="3.30864" height="0.833333" fill="#2E4028"/>
<rect opacity="0.5" x="27.2964" y="20" width="3.30864" height="0.833333" fill="#2E4028"/>
<path d="M56.3799 16.6438H60.7648L60.8806 16.9675H56.2145L56.3799 16.6438ZM64.5705 21.2243C64.6146 21.2243 64.6367 21.2566 64.6367 21.3214C64.6367 21.3861 64.6146 21.4185 64.5705 21.4185C64.3609 21.4185 64.0355 21.4077 63.5942 21.3861C63.153 21.3645 62.8331 21.3538 62.6345 21.3538C62.3918 21.3538 62.083 21.3645 61.7079 21.3861C61.3549 21.4077 61.0847 21.4185 60.8971 21.4185C60.853 21.4185 60.8309 21.3861 60.8309 21.3214C60.8309 21.2566 60.853 21.2243 60.8971 21.2243C61.3163 21.2243 61.6142 21.1865 61.7906 21.111C61.9782 21.0354 62.0719 20.9006 62.0719 20.7063C62.0719 20.5445 62.0058 20.3179 61.8734 20.0266L58.2 12.4357L58.6137 11.9339L55.4037 19.363C55.2492 19.7298 55.172 20.032 55.172 20.2693C55.172 20.906 55.7125 21.2243 56.7936 21.2243C56.8487 21.2243 56.8763 21.2566 56.8763 21.3214C56.8763 21.3861 56.8487 21.4185 56.7936 21.4185C56.595 21.4185 56.3082 21.4077 55.9332 21.3861C55.514 21.3645 55.15 21.3538 54.8411 21.3538C54.5543 21.3538 54.2233 21.3645 53.8483 21.3861C53.5174 21.4077 53.2416 21.4185 53.021 21.4185C52.9658 21.4185 52.9382 21.3861 52.9382 21.3214C52.9382 21.2566 52.9658 21.2243 53.021 21.2243C53.3298 21.2243 53.5891 21.1703 53.7987 21.0624C54.0193 20.9437 54.2233 20.7441 54.4109 20.4636C54.6094 20.1722 54.8245 19.7568 55.0562 19.2173L58.5475 11.157C58.5696 11.1247 58.6082 11.1085 58.6633 11.1085C58.7185 11.1085 58.7516 11.1247 58.7626 11.157L62.6676 19.2011C63.0427 19.9996 63.3626 20.5391 63.6273 20.8196C63.8921 21.0894 64.2064 21.2243 64.5705 21.2243Z" fill="#2E4028"/>
<path d="M70.993 20.0427C70.993 20.3557 71.0261 20.5823 71.0923 20.7225C71.1585 20.8628 71.2798 20.9599 71.4563 21.0139C71.6328 21.057 71.9196 21.0786 72.3167 21.0786H74.1203C74.7491 21.0786 75.251 20.8898 75.626 20.5121C76.0011 20.1345 76.2493 19.6111 76.3706 18.9421C76.3706 18.9098 76.3982 18.899 76.4534 18.9098C76.5196 18.9098 76.5526 18.926 76.5526 18.9583C76.4534 19.8539 76.4037 20.593 76.4037 21.1757C76.4037 21.262 76.3872 21.3268 76.3541 21.3699C76.321 21.4023 76.2548 21.4185 76.1555 21.4185H68.511C68.489 21.4185 68.4779 21.3861 68.4779 21.3214C68.4779 21.2566 68.489 21.2243 68.511 21.2243C68.9302 21.2243 69.2335 21.1973 69.4211 21.1433C69.6196 21.0894 69.752 20.9869 69.8182 20.8358C69.8844 20.674 69.9175 20.4312 69.9175 20.1075V12.6137C69.9175 12.29 69.8844 12.0526 69.8182 11.9016C69.752 11.7505 69.6196 11.648 69.4211 11.594C69.2335 11.5293 68.9302 11.4969 68.511 11.4969C68.489 11.4969 68.4779 11.4646 68.4779 11.3998C68.4779 11.3351 68.489 11.3027 68.511 11.3027L69.3218 11.3189C69.7851 11.3405 70.1602 11.3513 70.447 11.3513C70.7558 11.3513 71.1419 11.3405 71.6052 11.3189L72.3995 11.3027C72.4325 11.3027 72.4491 11.3351 72.4491 11.3998C72.4491 11.4646 72.4325 11.4969 72.3995 11.4969C71.9913 11.4969 71.688 11.5293 71.4894 11.594C71.2908 11.648 71.1585 11.7559 71.0923 11.9177C71.0261 12.0688 70.993 12.3062 70.993 12.6299V20.0427Z" fill="#2E4028"/>
<path d="M83.125 20.0427C83.125 20.3557 83.1581 20.5823 83.2243 20.7225C83.2905 20.8628 83.4118 20.9599 83.5883 21.0139C83.7648 21.057 84.0516 21.0786 84.4487 21.0786H86.2523C86.8811 21.0786 87.383 20.8898 87.758 20.5121C88.1331 20.1345 88.3813 19.6111 88.5026 18.9421C88.5026 18.9098 88.5302 18.899 88.5854 18.9098C88.6516 18.9098 88.6846 18.926 88.6846 18.9583C88.5854 19.8539 88.5357 20.593 88.5357 21.1757C88.5357 21.262 88.5192 21.3268 88.4861 21.3699C88.453 21.4023 88.3868 21.4185 88.2875 21.4185H80.643C80.6209 21.4185 80.6099 21.3861 80.6099 21.3214C80.6099 21.2566 80.6209 21.2243 80.643 21.2243C81.0622 21.2243 81.3655 21.1973 81.5531 21.1433C81.7516 21.0894 81.884 20.9869 81.9502 20.8358C82.0164 20.674 82.0495 20.4312 82.0495 20.1075V12.6137C82.0495 12.29 82.0164 12.0526 81.9502 11.9016C81.884 11.7505 81.7516 11.648 81.5531 11.594C81.3655 11.5293 81.0622 11.4969 80.643 11.4969C80.6209 11.4969 80.6099 11.4646 80.6099 11.3998C80.6099 11.3351 80.6209 11.3027 80.643 11.3027L81.4538 11.3189C81.9171 11.3405 82.2922 11.3513 82.579 11.3513C82.8878 11.3513 83.2739 11.3405 83.7372 11.3189L84.5315 11.3027C84.5645 11.3027 84.5811 11.3351 84.5811 11.3998C84.5811 11.4646 84.5645 11.4969 84.5315 11.4969C84.1233 11.4969 83.82 11.5293 83.6214 11.594C83.4228 11.648 83.2905 11.7559 83.2243 11.9177C83.1581 12.0688 83.125 12.3062 83.125 12.6299V20.0427Z" fill="#2E4028"/>
<path d="M101.783 13.1964C101.783 13.6172 101.887 13.9841 102.097 14.297C102.307 14.6099 102.56 14.8743 102.858 15.0901C103.156 15.2951 103.575 15.5594 104.116 15.8831C104.689 16.2176 105.136 16.4982 105.456 16.7248C105.776 16.9514 106.046 17.2427 106.267 17.5988C106.498 17.9441 106.614 18.3595 106.614 18.845C106.614 19.363 106.482 19.8323 106.217 20.2532C105.952 20.674 105.561 21.0085 105.042 21.2566C104.535 21.494 103.923 21.6127 103.206 21.6127C102.356 21.6127 101.578 21.4239 100.872 21.0462C100.817 21.0139 100.779 20.9761 100.757 20.9329C100.746 20.8898 100.735 20.825 100.724 20.7387L100.508 18.5375C100.497 18.4944 100.519 18.4674 100.575 18.4566C100.641 18.4458 100.679 18.462 100.69 18.5051C100.856 19.2712 101.181 19.9402 101.667 20.5121C102.152 21.0732 102.792 21.3538 103.586 21.3538C104.138 21.3538 104.601 21.2081 104.976 20.9167C105.362 20.6146 105.555 20.1399 105.555 19.4924C105.555 19.0069 105.445 18.5861 105.224 18.23C105.004 17.8739 104.733 17.5826 104.413 17.356C104.105 17.1186 103.68 16.8435 103.139 16.5305C102.61 16.2176 102.191 15.9479 101.882 15.7213C101.584 15.4947 101.33 15.2087 101.121 14.8635C100.911 14.5182 100.806 14.1135 100.806 13.6496C100.806 13.1101 100.95 12.6515 101.237 12.2738C101.534 11.8854 101.915 11.5994 102.378 11.416C102.853 11.2218 103.354 11.1247 103.884 11.1247C104.535 11.1247 105.18 11.2541 105.82 11.5131C105.985 11.5671 106.068 11.6588 106.068 11.7883L106.184 13.6334C106.184 13.6873 106.151 13.7143 106.085 13.7143C106.03 13.7143 105.996 13.6927 105.985 13.6496C105.908 13.0885 105.677 12.5706 105.29 12.0958C104.904 11.6102 104.347 11.3674 103.619 11.3674C103.001 11.3674 102.538 11.5455 102.229 11.9016C101.931 12.2468 101.783 12.6785 101.783 13.1964Z" fill="#2E4028"/>
<path d="M114.196 16.6438H118.581L118.697 16.9675H114.03L114.196 16.6438ZM122.387 21.2243C122.431 21.2243 122.453 21.2566 122.453 21.3214C122.453 21.3861 122.431 21.4185 122.387 21.4185C122.177 21.4185 121.852 21.4077 121.41 21.3861C120.969 21.3645 120.649 21.3538 120.451 21.3538C120.208 21.3538 119.899 21.3645 119.524 21.3861C119.171 21.4077 118.901 21.4185 118.713 21.4185C118.669 21.4185 118.647 21.3861 118.647 21.3214C118.647 21.2566 118.669 21.2243 118.713 21.2243C119.132 21.2243 119.43 21.1865 119.607 21.111C119.794 21.0354 119.888 20.9006 119.888 20.7063C119.888 20.5445 119.822 20.3179 119.689 20.0266L116.016 12.4357L116.43 11.9339L113.22 19.363C113.065 19.7298 112.988 20.032 112.988 20.2693C112.988 20.906 113.529 21.2243 114.61 21.2243C114.665 21.2243 114.692 21.2566 114.692 21.3214C114.692 21.3861 114.665 21.4185 114.61 21.4185C114.411 21.4185 114.124 21.4077 113.749 21.3861C113.33 21.3645 112.966 21.3538 112.657 21.3538C112.37 21.3538 112.039 21.3645 111.664 21.3861C111.333 21.4077 111.058 21.4185 110.837 21.4185C110.782 21.4185 110.754 21.3861 110.754 21.3214C110.754 21.2566 110.782 21.2243 110.837 21.2243C111.146 21.2243 111.405 21.1703 111.615 21.0624C111.835 20.9437 112.039 20.7441 112.227 20.4636C112.425 20.1722 112.641 19.7568 112.872 19.2173L116.364 11.157C116.386 11.1247 116.424 11.1085 116.479 11.1085C116.535 11.1085 116.568 11.1247 116.579 11.157L120.484 19.2011C120.859 19.9996 121.179 20.5391 121.443 20.8196C121.708 21.0894 122.022 21.2243 122.387 21.2243Z" fill="#2E4028"/>
<path d="M129.041 20.1075C129.041 20.442 129.074 20.6848 129.14 20.8358C129.206 20.9869 129.333 21.0894 129.521 21.1433C129.719 21.1973 130.028 21.2243 130.447 21.2243C130.48 21.2243 130.497 21.2566 130.497 21.3214C130.497 21.3861 130.48 21.4185 130.447 21.4185C130.116 21.4185 129.851 21.4131 129.653 21.4023L128.478 21.3861L127.336 21.4023C127.138 21.4131 126.868 21.4185 126.526 21.4185C126.493 21.4185 126.476 21.3861 126.476 21.3214C126.476 21.2566 126.493 21.2243 126.526 21.2243C126.945 21.2243 127.248 21.1973 127.436 21.1433C127.634 21.0894 127.767 20.9869 127.833 20.8358C127.91 20.674 127.949 20.4312 127.949 20.1075V12.6137C127.949 12.29 127.91 12.0526 127.833 11.9016C127.767 11.7505 127.634 11.648 127.436 11.594C127.248 11.5293 126.945 11.4969 126.526 11.4969C126.493 11.4969 126.476 11.4646 126.476 11.3998C126.476 11.3351 126.493 11.3027 126.526 11.3027L127.336 11.3189C127.8 11.3405 128.18 11.3513 128.478 11.3513C128.809 11.3513 129.206 11.3405 129.669 11.3189L130.447 11.3027C130.48 11.3027 130.497 11.3351 130.497 11.3998C130.497 11.4646 130.48 11.4969 130.447 11.4969C130.039 11.4969 129.736 11.5293 129.537 11.594C129.339 11.6588 129.206 11.7721 129.14 11.9339C129.074 12.085 129.041 12.3224 129.041 12.6461V20.1075Z" fill="#2E4028"/>
<path d="M136.537 11.675L136.917 11.7073V19.6543C136.917 20.2154 137.017 20.62 137.215 20.8682C137.425 21.1056 137.756 21.2243 138.208 21.2243C138.241 21.2243 138.258 21.2566 138.258 21.3214C138.258 21.3861 138.241 21.4185 138.208 21.4185C137.932 21.4185 137.723 21.4131 137.579 21.4023L136.752 21.3861L135.908 21.4023C135.754 21.4131 135.527 21.4185 135.23 21.4185C135.208 21.4185 135.197 21.3861 135.197 21.3214C135.197 21.2566 135.208 21.2243 135.23 21.2243C135.704 21.2243 136.04 21.1056 136.239 20.8682C136.438 20.62 136.537 20.2154 136.537 19.6543V11.675ZM144.876 21.6127C144.876 21.6343 144.849 21.6505 144.794 21.6613C144.738 21.6721 144.7 21.6667 144.678 21.6451L137.066 12.6299C136.713 12.2091 136.388 11.9177 136.09 11.7559C135.803 11.5832 135.516 11.4969 135.23 11.4969C135.197 11.4969 135.18 11.4646 135.18 11.3998C135.18 11.3351 135.197 11.3027 135.23 11.3027L135.842 11.3189C135.974 11.3297 136.156 11.3351 136.388 11.3351C136.631 11.3351 136.829 11.3297 136.984 11.3189C137.138 11.3081 137.259 11.3027 137.348 11.3027C137.425 11.3027 137.485 11.3243 137.53 11.3674C137.585 11.3998 137.645 11.4753 137.712 11.594C137.844 11.7883 137.982 11.9717 138.125 12.1443L144.744 20.0913L144.876 21.6127ZM144.876 21.6127L144.496 21.111V13.0831C144.496 12.522 144.396 12.1174 144.198 11.8692C144.01 11.621 143.69 11.4969 143.238 11.4969C143.216 11.4969 143.205 11.4646 143.205 11.3998C143.205 11.3351 143.216 11.3027 143.238 11.3027L143.883 11.3189C144.214 11.3405 144.485 11.3513 144.694 11.3513C144.893 11.3513 145.169 11.3405 145.522 11.3189L146.2 11.3027C146.233 11.3027 146.25 11.3351 146.25 11.3998C146.25 11.4646 146.233 11.4969 146.2 11.4969C145.737 11.4969 145.4 11.621 145.191 11.8692C144.981 12.1174 144.876 12.522 144.876 13.0831V21.6127Z" fill="#2E4028"/>
<path d="M152.993 11.594C152.309 11.594 151.791 11.7667 151.438 12.112C151.096 12.4573 150.848 13.0453 150.693 13.8762C150.693 13.8977 150.66 13.9085 150.594 13.9085C150.539 13.9085 150.511 13.8977 150.511 13.8762C150.556 13.4877 150.605 12.9806 150.66 12.3547C150.715 11.7289 150.743 11.2595 150.743 10.9466C150.743 10.8927 150.771 10.8657 150.826 10.8657C150.892 10.8657 150.925 10.8927 150.925 10.9466C150.925 11.184 151.223 11.3027 151.819 11.3027C152.767 11.3351 153.876 11.3513 155.144 11.3513C155.795 11.3513 156.485 11.3405 157.213 11.3189L158.338 11.3027C158.735 11.3027 159.027 11.2757 159.215 11.2218C159.413 11.1678 159.54 11.0599 159.595 10.8981C159.607 10.8549 159.64 10.8333 159.695 10.8333C159.75 10.8333 159.778 10.8549 159.778 10.8981C159.744 11.211 159.711 11.6858 159.678 12.3224C159.645 12.959 159.629 13.4769 159.629 13.8762C159.629 13.8977 159.595 13.9085 159.529 13.9085C159.463 13.9085 159.43 13.8977 159.43 13.8762C159.397 13.0345 159.22 12.4465 158.901 12.112C158.581 11.7667 158.051 11.594 157.312 11.594C156.816 11.594 156.463 11.6156 156.253 11.6588C156.043 11.7019 155.9 11.7937 155.823 11.9339C155.746 12.0742 155.707 12.3116 155.707 12.6461V20.1075C155.707 20.442 155.746 20.6848 155.823 20.8358C155.9 20.9869 156.049 21.0894 156.27 21.1433C156.49 21.1973 156.838 21.2243 157.312 21.2243C157.345 21.2243 157.362 21.2566 157.362 21.3214C157.362 21.3861 157.345 21.4185 157.312 21.4185C156.948 21.4185 156.656 21.4131 156.435 21.4023L155.144 21.3861L153.903 21.4023C153.683 21.4131 153.379 21.4185 152.993 21.4185C152.971 21.4185 152.96 21.3861 152.96 21.3214C152.96 21.2566 152.971 21.2243 152.993 21.2243C153.468 21.2243 153.815 21.1973 154.036 21.1433C154.256 21.0894 154.405 20.9869 154.483 20.8358C154.571 20.674 154.615 20.4312 154.615 20.1075V12.6137C154.615 12.2792 154.576 12.0472 154.499 11.9177C154.422 11.7775 154.279 11.6912 154.069 11.6588C153.859 11.6156 153.501 11.594 152.993 11.594Z" fill="#2E4028"/>
<path d="M166.078 13.1964C166.078 13.6172 166.183 13.9841 166.393 14.297C166.602 14.6099 166.856 14.8743 167.154 15.0901C167.452 15.2951 167.871 15.5594 168.411 15.8831C168.985 16.2176 169.432 16.4982 169.752 16.7248C170.071 16.9514 170.342 17.2427 170.562 17.5988C170.794 17.9441 170.91 18.3595 170.91 18.845C170.91 19.363 170.777 19.8323 170.513 20.2532C170.248 20.674 169.856 21.0085 169.338 21.2566C168.831 21.494 168.218 21.6127 167.501 21.6127C166.652 21.6127 165.874 21.4239 165.168 21.0462C165.113 21.0139 165.074 20.9761 165.052 20.9329C165.041 20.8898 165.03 20.825 165.019 20.7387L164.804 18.5375C164.793 18.4944 164.815 18.4674 164.87 18.4566C164.937 18.4458 164.975 18.462 164.986 18.5051C165.152 19.2712 165.477 19.9402 165.962 20.5121C166.448 21.0732 167.088 21.3538 167.882 21.3538C168.433 21.3538 168.897 21.2081 169.272 20.9167C169.658 20.6146 169.851 20.1399 169.851 19.4924C169.851 19.0069 169.741 18.5861 169.52 18.23C169.299 17.8739 169.029 17.5826 168.709 17.356C168.4 17.1186 167.976 16.8435 167.435 16.5305C166.906 16.2176 166.486 15.9479 166.178 15.7213C165.88 15.4947 165.626 15.2087 165.416 14.8635C165.207 14.5182 165.102 14.1135 165.102 13.6496C165.102 13.1101 165.245 12.6515 165.532 12.2738C165.83 11.8854 166.211 11.5994 166.674 11.416C167.148 11.2218 167.65 11.1247 168.18 11.1247C168.831 11.1247 169.476 11.2541 170.116 11.5131C170.281 11.5671 170.364 11.6588 170.364 11.7883L170.48 13.6334C170.48 13.6873 170.447 13.7143 170.38 13.7143C170.325 13.7143 170.292 13.6927 170.281 13.6496C170.204 13.0885 169.972 12.5706 169.586 12.0958C169.2 11.6102 168.643 11.3674 167.915 11.3674C167.297 11.3674 166.834 11.5455 166.525 11.9016C166.227 12.2468 166.078 12.6785 166.078 13.1964Z" fill="#2E4028"/>
<path d="M189.104 11.1247C189.799 11.1247 190.384 11.1732 190.858 11.2703C191.333 11.3674 191.807 11.5347 192.281 11.7721C192.358 11.8152 192.403 11.853 192.414 11.8854C192.425 11.9177 192.441 11.9987 192.463 12.1282L192.662 14.0542C192.662 14.0866 192.629 14.1081 192.562 14.1189C192.507 14.1189 192.474 14.1028 192.463 14.0704C191.956 12.2684 190.82 11.3674 189.055 11.3674C188.128 11.3674 187.306 11.5671 186.589 11.9663C185.883 12.3655 185.337 12.9374 184.951 13.6819C184.565 14.4157 184.372 15.2735 184.372 16.2554C184.372 17.1941 184.587 18.0574 185.017 18.845C185.447 19.6219 186.021 20.237 186.738 20.6902C187.466 21.1433 188.255 21.3699 189.104 21.3699C190.009 21.3699 190.742 21.1541 191.305 20.7225C191.868 20.2909 192.298 19.6327 192.596 18.7479C192.596 18.7263 192.623 18.7156 192.678 18.7156C192.756 18.7156 192.794 18.7317 192.794 18.7641L192.629 20.5445C192.618 20.674 192.601 20.7549 192.579 20.7873C192.557 20.8196 192.513 20.8574 192.447 20.9006C191.873 21.1703 191.333 21.3591 190.825 21.467C190.329 21.5749 189.755 21.6289 189.104 21.6289C187.946 21.6289 186.909 21.4077 185.993 20.9653C185.089 20.5121 184.383 19.8809 183.876 19.0716C183.368 18.2624 183.114 17.3344 183.114 16.2878C183.114 15.2735 183.374 14.3779 183.892 13.601C184.411 12.8133 185.122 12.2037 186.027 11.7721C186.942 11.3405 187.968 11.1247 189.104 11.1247Z" fill="#2E4028"/>
<path d="M206.404 12.6461C206.404 12.3224 206.366 12.085 206.289 11.9339C206.222 11.7721 206.09 11.6588 205.892 11.594C205.693 11.5293 205.379 11.4969 204.948 11.4969C204.915 11.4969 204.899 11.4646 204.899 11.3998C204.899 11.3351 204.915 11.3027 204.948 11.3027L205.743 11.3189C206.228 11.3405 206.631 11.3513 206.95 11.3513C207.248 11.3513 207.629 11.3405 208.092 11.3189L208.903 11.3027C208.936 11.3027 208.953 11.3351 208.953 11.3998C208.953 11.4646 208.936 11.4969 208.903 11.4969C208.484 11.4969 208.175 11.5293 207.976 11.594C207.778 11.648 207.64 11.7505 207.563 11.9016C207.497 12.0526 207.463 12.29 207.463 12.6137V20.1075C207.463 20.4312 207.497 20.674 207.563 20.8358C207.64 20.9869 207.778 21.0894 207.976 21.1433C208.175 21.1973 208.484 21.2243 208.903 21.2243C208.936 21.2243 208.953 21.2566 208.953 21.3214C208.953 21.3861 208.936 21.4185 208.903 21.4185C208.561 21.4185 208.291 21.4131 208.092 21.4023L206.95 21.3861L205.743 21.4023C205.544 21.4131 205.279 21.4185 204.948 21.4185C204.915 21.4185 204.899 21.3861 204.899 21.3214C204.899 21.2566 204.915 21.2243 204.948 21.2243C205.379 21.2243 205.693 21.1973 205.892 21.1433C206.09 21.0894 206.222 20.9869 206.289 20.8358C206.366 20.674 206.404 20.4312 206.404 20.1075V12.6461ZM199.471 15.9802H206.868V16.3201H199.471V15.9802ZM198.992 12.6137C198.992 12.29 198.953 12.0526 198.876 11.9016C198.81 11.7505 198.677 11.648 198.479 11.594C198.28 11.5293 197.971 11.4969 197.552 11.4969C197.53 11.4969 197.519 11.4646 197.519 11.3998C197.519 11.3351 197.53 11.3027 197.552 11.3027L198.396 11.3189C198.859 11.3405 199.229 11.3513 199.505 11.3513C199.824 11.3513 200.227 11.3405 200.712 11.3189L201.507 11.3027C201.529 11.3027 201.54 11.3351 201.54 11.3998C201.54 11.4646 201.529 11.4969 201.507 11.4969C201.087 11.4969 200.773 11.5293 200.564 11.594C200.365 11.6588 200.227 11.7721 200.15 11.9339C200.084 12.085 200.051 12.3224 200.051 12.6461V20.1075C200.051 20.4312 200.084 20.674 200.15 20.8358C200.227 20.9869 200.365 21.0894 200.564 21.1433C200.762 21.1973 201.076 21.2243 201.507 21.2243C201.529 21.2243 201.54 21.2566 201.54 21.3214C201.54 21.3861 201.529 21.4185 201.507 21.4185C201.165 21.4185 200.894 21.4131 200.696 21.4023L199.505 21.3861L198.363 21.4023C198.164 21.4131 197.888 21.4185 197.535 21.4185C197.513 21.4185 197.502 21.3861 197.502 21.3214C197.502 21.2566 197.513 21.2243 197.535 21.2243C197.955 21.2243 198.264 21.1973 198.462 21.1433C198.672 21.0894 198.81 20.9869 198.876 20.8358C198.953 20.674 198.992 20.4312 198.992 20.1075V12.6137Z" fill="#2E4028"/>
<path d="M222.286 13.0831C222.286 12.0256 221.806 11.4969 220.846 11.4969C220.813 11.4969 220.796 11.4646 220.796 11.3998C220.796 11.3351 220.813 11.3027 220.846 11.3027L221.558 11.3189C221.955 11.3405 222.269 11.3513 222.501 11.3513C222.688 11.3513 222.959 11.3405 223.312 11.3189L224.007 11.3027C224.029 11.3027 224.04 11.3351 224.04 11.3998C224.04 11.4646 224.029 11.4969 224.007 11.4969C223.124 11.4969 222.683 12.0256 222.683 13.0831V17.6797C222.683 18.9206 222.33 19.8917 221.624 20.593C220.918 21.2836 219.969 21.6289 218.778 21.6289C217.961 21.6289 217.244 21.4724 216.627 21.1595C216.02 20.8466 215.546 20.4042 215.204 19.8323C214.873 19.2497 214.707 18.5699 214.707 17.793V12.6137C214.707 12.29 214.674 12.0526 214.608 11.9016C214.542 11.7505 214.409 11.648 214.211 11.594C214.023 11.5293 213.72 11.4969 213.301 11.4969C213.279 11.4969 213.268 11.4646 213.268 11.3998C213.268 11.3351 213.279 11.3027 213.301 11.3027L214.112 11.3189C214.575 11.3405 214.95 11.3513 215.237 11.3513C215.535 11.3513 215.926 11.3405 216.412 11.3189L217.173 11.3027C217.206 11.3027 217.222 11.3351 217.222 11.3998C217.222 11.4646 217.206 11.4969 217.173 11.4969C216.765 11.4969 216.461 11.5293 216.263 11.594C216.075 11.6588 215.948 11.7721 215.882 11.9339C215.816 12.085 215.783 12.3224 215.783 12.6461V17.2265C215.783 18.4997 216.075 19.4709 216.66 20.1399C217.244 20.8088 218.072 21.1433 219.142 21.1433C220.135 21.1433 220.907 20.8412 221.458 20.237C222.01 19.6219 222.286 18.7749 222.286 17.6959V13.0831Z" fill="#2E4028"/>
<path d="M236.851 21.4185C236.575 21.4185 236.045 20.9599 235.262 20.0427C234.49 19.1148 233.558 17.8415 232.466 16.223L233.392 15.9479C234.352 17.2966 235.152 18.3487 235.792 19.104C236.443 19.8485 237.016 20.388 237.513 20.7225C238.009 21.057 238.494 21.2243 238.969 21.2243C239.002 21.2243 239.018 21.2566 239.018 21.3214C239.018 21.3861 239.002 21.4185 238.969 21.4185H236.851ZM232.681 11.2541C233.552 11.2541 234.225 11.4484 234.7 11.8368C235.174 12.2253 235.411 12.7432 235.411 13.3906C235.411 13.9625 235.24 14.4858 234.898 14.9606C234.556 15.4246 234.093 15.7968 233.508 16.0774C232.935 16.3471 232.317 16.482 231.655 16.482C231.589 16.482 231.341 16.4658 230.91 16.4334V20.1075C230.91 20.442 230.944 20.6848 231.01 20.8358C231.076 20.9869 231.203 21.0894 231.39 21.1433C231.589 21.1973 231.898 21.2243 232.317 21.2243C232.35 21.2243 232.367 21.2566 232.367 21.3214C232.367 21.3861 232.35 21.4185 232.317 21.4185C231.975 21.4185 231.705 21.4131 231.506 21.4023L230.364 21.3861L229.239 21.4023C229.041 21.4131 228.759 21.4185 228.395 21.4185C228.373 21.4185 228.362 21.3861 228.362 21.3214C228.362 21.2566 228.373 21.2243 228.395 21.2243C228.815 21.2243 229.123 21.1973 229.322 21.1433C229.521 21.0786 229.658 20.9707 229.736 20.8196C229.813 20.6686 229.851 20.4312 229.851 20.1075V12.6137C229.851 12.29 229.813 12.0526 229.736 11.9016C229.669 11.7505 229.537 11.648 229.339 11.594C229.151 11.5293 228.848 11.4969 228.428 11.4969C228.395 11.4969 228.379 11.4646 228.379 11.3998C228.379 11.3351 228.395 11.3027 228.428 11.3027L229.239 11.3189C229.703 11.3405 230.078 11.3513 230.364 11.3513C230.607 11.3513 230.833 11.3459 231.043 11.3351C231.252 11.3243 231.429 11.3135 231.572 11.3027C231.991 11.2703 232.361 11.2541 232.681 11.2541ZM234.286 13.86C234.286 13.0183 234.093 12.4141 233.707 12.0472C233.332 11.6804 232.78 11.4969 232.052 11.4969C231.622 11.4969 231.324 11.5725 231.159 11.7235C230.993 11.8746 230.91 12.1821 230.91 12.6461V16.045C231.175 16.0881 231.501 16.1097 231.887 16.1097C232.747 16.1097 233.359 15.9263 233.723 15.5594C234.098 15.1926 234.286 14.6261 234.286 13.86Z" fill="#2E4028"/>
<path d="M248.152 11.1247C248.847 11.1247 249.431 11.1732 249.906 11.2703C250.38 11.3674 250.854 11.5347 251.329 11.7721C251.406 11.8152 251.45 11.853 251.461 11.8854C251.472 11.9177 251.488 11.9987 251.511 12.1282L251.709 14.0542C251.709 14.0866 251.676 14.1081 251.61 14.1189C251.555 14.1189 251.522 14.1028 251.511 14.0704C251.003 12.2684 249.867 11.3674 248.102 11.3674C247.175 11.3674 246.354 11.5671 245.636 11.9663C244.931 12.3655 244.384 12.9374 243.998 13.6819C243.612 14.4157 243.419 15.2735 243.419 16.2554C243.419 17.1941 243.634 18.0574 244.065 18.845C244.495 19.6219 245.068 20.237 245.785 20.6902C246.513 21.1433 247.302 21.3699 248.152 21.3699C249.056 21.3699 249.79 21.1541 250.352 20.7225C250.915 20.2909 251.345 19.6327 251.643 18.7479C251.643 18.7263 251.67 18.7156 251.726 18.7156C251.803 18.7156 251.841 18.7317 251.841 18.7641L251.676 20.5445C251.665 20.674 251.648 20.7549 251.626 20.7873C251.604 20.8196 251.56 20.8574 251.494 20.9006C250.92 21.1703 250.38 21.3591 249.872 21.467C249.376 21.5749 248.802 21.6289 248.152 21.6289C246.993 21.6289 245.956 21.4077 245.041 20.9653C244.136 20.5121 243.43 19.8809 242.923 19.0716C242.415 18.2624 242.162 17.3344 242.162 16.2878C242.162 15.2735 242.421 14.3779 242.939 13.601C243.458 12.8133 244.169 12.2037 245.074 11.7721C245.989 11.3405 247.015 11.1247 248.152 11.1247Z" fill="#2E4028"/>
<path d="M265.452 12.6461C265.452 12.3224 265.413 12.085 265.336 11.9339C265.27 11.7721 265.137 11.6588 264.939 11.594C264.74 11.5293 264.426 11.4969 263.996 11.4969C263.963 11.4969 263.946 11.4646 263.946 11.3998C263.946 11.3351 263.963 11.3027 263.996 11.3027L264.79 11.3189C265.275 11.3405 265.678 11.3513 265.998 11.3513C266.296 11.3513 266.676 11.3405 267.14 11.3189L267.95 11.3027C267.983 11.3027 268 11.3351 268 11.3998C268 11.4646 267.983 11.4969 267.95 11.4969C267.531 11.4969 267.222 11.5293 267.024 11.594C266.825 11.648 266.687 11.7505 266.61 11.9016C266.544 12.0526 266.511 12.29 266.511 12.6137V20.1075C266.511 20.4312 266.544 20.674 266.61 20.8358C266.687 20.9869 266.825 21.0894 267.024 21.1433C267.222 21.1973 267.531 21.2243 267.95 21.2243C267.983 21.2243 268 21.2566 268 21.3214C268 21.3861 267.983 21.4185 267.95 21.4185C267.608 21.4185 267.338 21.4131 267.14 21.4023L265.998 21.3861L264.79 21.4023C264.591 21.4131 264.327 21.4185 263.996 21.4185C263.963 21.4185 263.946 21.3861 263.946 21.3214C263.946 21.2566 263.963 21.2243 263.996 21.2243C264.426 21.2243 264.74 21.1973 264.939 21.1433C265.137 21.0894 265.27 20.9869 265.336 20.8358C265.413 20.674 265.452 20.4312 265.452 20.1075V12.6461ZM258.519 15.9802H265.915V16.3201H258.519V15.9802ZM258.039 12.6137C258.039 12.29 258 12.0526 257.923 11.9016C257.857 11.7505 257.725 11.648 257.526 11.594C257.327 11.5293 257.019 11.4969 256.599 11.4969C256.577 11.4969 256.566 11.4646 256.566 11.3998C256.566 11.3351 256.577 11.3027 256.599 11.3027L257.443 11.3189C257.907 11.3405 258.276 11.3513 258.552 11.3513C258.872 11.3513 259.274 11.3405 259.76 11.3189L260.554 11.3027C260.576 11.3027 260.587 11.3351 260.587 11.3998C260.587 11.4646 260.576 11.4969 260.554 11.4969C260.135 11.4969 259.82 11.5293 259.611 11.594C259.412 11.6588 259.274 11.7721 259.197 11.9339C259.131 12.085 259.098 12.3224 259.098 12.6461V20.1075C259.098 20.4312 259.131 20.674 259.197 20.8358C259.274 20.9869 259.412 21.0894 259.611 21.1433C259.809 21.1973 260.124 21.2243 260.554 21.2243C260.576 21.2243 260.587 21.2566 260.587 21.3214C260.587 21.3861 260.576 21.4185 260.554 21.4185C260.212 21.4185 259.942 21.4131 259.743 21.4023L258.552 21.3861L257.41 21.4023C257.212 21.4131 256.936 21.4185 256.583 21.4185C256.561 21.4185 256.55 21.3861 256.55 21.3214C256.55 21.2566 256.561 21.2243 256.583 21.2243C257.002 21.2243 257.311 21.1973 257.509 21.1433C257.719 21.0894 257.857 20.9869 257.923 20.8358C258 20.674 258.039 20.4312 258.039 20.1075V12.6137Z" fill="#2E4028"/>
<path d="M58.2481 29.98C56.7849 29.98 55.6758 30.3537 54.9206 31.1011C54.189 31.8485 53.658 33.1215 53.3276 34.9199C53.3276 34.9666 53.2568 34.99 53.1152 34.99C52.9972 34.99 52.9382 34.9666 52.9382 34.9199C53.0326 34.0791 53.1388 32.9813 53.2568 31.6266C53.3748 30.2719 53.4338 29.2559 53.4338 28.5786C53.4338 28.4618 53.4928 28.4034 53.6108 28.4034C53.7524 28.4034 53.8232 28.4618 53.8232 28.5786C53.8232 29.0924 54.4604 29.3493 55.7348 29.3493C57.7643 29.4194 60.136 29.4545 62.8499 29.4545C64.2423 29.4545 65.7173 29.4311 67.2748 29.3844L69.6819 29.3493C70.5315 29.3493 71.1569 29.291 71.5581 29.1742C71.9829 29.0574 72.2543 28.8238 72.3723 28.4735C72.3959 28.38 72.4667 28.3333 72.5847 28.3333C72.7027 28.3333 72.7617 28.38 72.7617 28.4735C72.6909 29.1508 72.6201 30.1785 72.5493 31.5566C72.4785 32.9346 72.4431 34.0557 72.4431 34.9199C72.4431 34.9666 72.3723 34.99 72.2307 34.99C72.0891 34.99 72.0183 34.9666 72.0183 34.9199C71.9475 33.0981 71.5699 31.8252 70.8855 31.1011C70.2011 30.3537 69.0684 29.98 67.4872 29.98C66.4252 29.98 65.6701 30.0267 65.2217 30.1201C64.7733 30.2135 64.4665 30.4121 64.3013 30.7157C64.1361 31.0194 64.0535 31.5332 64.0535 32.2573V48.4084C64.0535 49.1325 64.1361 49.658 64.3013 49.985C64.4665 50.312 64.7851 50.5339 65.2571 50.6506C65.7291 50.7674 66.4724 50.8258 67.4872 50.8258C67.558 50.8258 67.5934 50.8959 67.5934 51.036C67.5934 51.1762 67.558 51.2462 67.4872 51.2462C66.7084 51.2462 66.083 51.2346 65.6111 51.2112L62.8499 51.1762L60.195 51.2112C59.723 51.2346 59.0741 51.2462 58.2481 51.2462C58.2009 51.2462 58.1773 51.1762 58.1773 51.036C58.1773 50.8959 58.2009 50.8258 58.2481 50.8258C59.2628 50.8258 60.0062 50.7674 60.4782 50.6506C60.9502 50.5339 61.2688 50.312 61.434 49.985C61.6228 49.6346 61.7172 49.1091 61.7172 48.4084V32.1872C61.7172 31.4631 61.6346 30.961 61.4694 30.6807C61.3042 30.377 60.9974 30.1902 60.549 30.1201C60.1006 30.0267 59.3336 29.98 58.2481 29.98Z" fill="#2E4028"/>
<path d="M93.615 51.6667C91.4202 51.6667 89.4615 51.1645 87.7387 50.1602C86.0396 49.1325 84.718 47.7544 83.7741 46.026C82.8537 44.2743 82.3935 42.3707 82.3935 40.3153C82.3935 37.9096 83.0071 35.8542 84.2342 34.1491C85.4614 32.4208 87.0308 31.1245 88.9423 30.2603C90.8774 29.3961 92.848 28.964 94.8539 28.964C97.0959 28.964 99.0664 29.4895 100.766 30.5405C102.465 31.5682 103.763 32.9346 104.659 34.6396C105.58 36.3447 106.04 38.1548 106.04 40.0701C106.04 42.1955 105.474 44.1458 104.341 45.9209C103.208 47.696 101.686 49.0974 99.7744 50.1251C97.8864 51.1528 95.8333 51.6667 93.615 51.6667ZM94.8539 50.9309C96.4587 50.9309 97.8982 50.5455 99.1726 49.7748C100.471 49.004 101.485 47.8829 102.217 46.4114C102.972 44.9166 103.35 43.1298 103.35 41.051C103.35 38.8555 102.937 36.9052 102.111 35.2002C101.285 33.4952 100.117 32.1638 98.6062 31.2062C97.1195 30.2486 95.3731 29.7698 93.3672 29.7698C90.7712 29.7698 88.7417 30.5989 87.2786 32.2573C85.8154 33.9156 85.0838 36.1929 85.0838 39.0891C85.0838 41.2846 85.4968 43.2933 86.3228 45.1151C87.1488 46.9136 88.3051 48.3383 89.7919 49.3894C91.2786 50.4171 92.966 50.9309 94.8539 50.9309Z" fill="#2E4028"/>
<path d="M116.328 51.2462C116.281 51.2462 116.257 51.1762 116.257 51.036C116.257 50.8959 116.281 50.8258 116.328 50.8258C117.225 50.8258 117.885 50.7674 118.31 50.6506C118.735 50.5339 119.018 50.312 119.16 49.985C119.325 49.6346 119.408 49.1091 119.408 48.4084V32.1872C119.408 31.4865 119.325 30.9726 119.16 30.6456C119.018 30.3187 118.735 30.0968 118.31 29.98C117.909 29.8398 117.26 29.7698 116.363 29.7698C116.316 29.7698 116.292 29.6997 116.292 29.5596C116.292 29.4194 116.316 29.3493 116.363 29.3493H130.594C130.806 29.3493 130.912 29.4545 130.912 29.6647L130.983 33.974C130.983 34.044 130.912 34.0908 130.771 34.1141C130.653 34.1141 130.594 34.0791 130.594 34.009C130.523 32.7711 130.145 31.8135 129.461 31.1361C128.776 30.4354 127.868 30.0851 126.735 30.0851H124.576C123.773 30.0851 123.172 30.1435 122.77 30.2603C122.369 30.377 122.086 30.5873 121.921 30.8909C121.756 31.1945 121.673 31.6383 121.673 32.2222V48.2683C121.673 49.0157 121.767 49.5646 121.956 49.9149C122.169 50.2419 122.57 50.4755 123.16 50.6156C123.773 50.7558 124.717 50.8258 125.992 50.8258C126.063 50.8258 126.098 50.8959 126.098 51.036C126.098 51.1762 126.063 51.2462 125.992 51.2462C125.024 51.2462 124.269 51.2346 123.726 51.2112L120.54 51.1762L118.133 51.2112C117.708 51.2346 117.107 51.2462 116.328 51.2462ZM128.788 43.5035C128.788 42.4758 128.505 41.7401 127.939 41.2963C127.396 40.8525 126.476 40.6306 125.178 40.6306H120.611V39.8949H125.284C126.535 39.8949 127.42 39.708 127.939 39.3343C128.481 38.9373 128.753 38.3066 128.753 37.4424C128.753 37.3957 128.824 37.3724 128.965 37.3724C129.107 37.3724 129.178 37.3957 129.178 37.4424L129.142 40.2803C129.142 40.9576 129.154 41.4715 129.178 41.8218L129.213 43.5035C129.213 43.5502 129.142 43.5736 129.001 43.5736C128.859 43.5736 128.788 43.5502 128.788 43.5035Z" fill="#2E4028"/>
<path d="M146.586 29.98C145.123 29.98 144.014 30.3537 143.259 31.1011C142.527 31.8485 141.996 33.1215 141.666 34.9199C141.666 34.9666 141.595 34.99 141.454 34.99C141.336 34.99 141.277 34.9666 141.277 34.9199C141.371 34.0791 141.477 32.9813 141.595 31.6266C141.713 30.2719 141.772 29.2559 141.772 28.5786C141.772 28.4618 141.831 28.4034 141.949 28.4034C142.091 28.4034 142.162 28.4618 142.162 28.5786C142.162 29.0924 142.799 29.3493 144.073 29.3493C146.103 29.4194 148.474 29.4545 151.188 29.4545C152.581 29.4545 154.056 29.4311 155.613 29.3844L158.02 29.3493C158.87 29.3493 159.495 29.291 159.896 29.1742C160.321 29.0574 160.593 28.8238 160.711 28.4735C160.734 28.38 160.805 28.3333 160.923 28.3333C161.041 28.3333 161.1 28.38 161.1 28.4735C161.029 29.1508 160.958 30.1785 160.888 31.5566C160.817 32.9346 160.781 34.0557 160.781 34.9199C160.781 34.9666 160.711 34.99 160.569 34.99C160.427 34.99 160.357 34.9666 160.357 34.9199C160.286 33.0981 159.908 31.8252 159.224 31.1011C158.54 30.3537 157.407 29.98 155.826 29.98C154.764 29.98 154.008 30.0267 153.56 30.1201C153.112 30.2135 152.805 30.4121 152.64 30.7157C152.475 31.0194 152.392 31.5332 152.392 32.2573V48.4084C152.392 49.1325 152.475 49.658 152.64 49.985C152.805 50.312 153.123 50.5339 153.595 50.6506C154.067 50.7674 154.811 50.8258 155.826 50.8258C155.896 50.8258 155.932 50.8959 155.932 51.036C155.932 51.1762 155.896 51.2462 155.826 51.2462C155.047 51.2462 154.421 51.2346 153.949 51.2112L151.188 51.1762L148.533 51.2112C148.061 51.2346 147.412 51.2462 146.586 51.2462C146.539 51.2462 146.516 51.1762 146.516 51.036C146.516 50.8959 146.539 50.8258 146.586 50.8258C147.601 50.8258 148.345 50.7674 148.817 50.6506C149.289 50.5339 149.607 50.312 149.772 49.985C149.961 49.6346 150.056 49.1091 150.056 48.4084V32.1872C150.056 31.4631 149.973 30.961 149.808 30.6807C149.643 30.377 149.336 30.1902 148.887 30.1201C148.439 30.0267 147.672 29.98 146.586 29.98Z" fill="#2E4028"/>
<path d="M189.058 51.2462C188.468 51.2462 187.335 50.2536 185.659 48.2683C184.008 46.2596 182.013 43.5035 179.677 40L181.659 39.4044C183.713 42.324 185.423 44.6013 186.792 46.2362C188.185 47.8478 189.412 49.0157 190.474 49.7397C191.536 50.4638 192.574 50.8258 193.589 50.8258C193.66 50.8258 193.695 50.8959 193.695 51.036C193.695 51.1762 193.66 51.2462 193.589 51.2462H189.058ZM180.137 29.2442C182.002 29.2442 183.441 29.6647 184.456 30.5055C185.471 31.3463 185.978 32.4675 185.978 33.8689C185.978 35.1068 185.612 36.2396 184.881 37.2673C184.149 38.2716 183.158 39.0774 181.907 39.6847C180.68 40.2686 179.358 40.5606 177.942 40.5606C177.801 40.5606 177.27 40.5255 176.35 40.4555V48.4084C176.35 49.1325 176.42 49.658 176.562 49.985C176.704 50.312 176.975 50.5339 177.376 50.6506C177.801 50.7674 178.462 50.8258 179.358 50.8258C179.429 50.8258 179.465 50.8959 179.465 51.036C179.465 51.1762 179.429 51.2462 179.358 51.2462C178.627 51.2462 178.049 51.2346 177.624 51.2112L175.181 51.1762L172.774 51.2112C172.349 51.2346 171.748 51.2462 170.969 51.2462C170.922 51.2462 170.898 51.1762 170.898 51.036C170.898 50.8959 170.922 50.8258 170.969 50.8258C171.866 50.8258 172.526 50.7674 172.951 50.6506C173.376 50.5105 173.671 50.2769 173.836 49.9499C174.001 49.623 174.084 49.1091 174.084 48.4084V32.1872C174.084 31.4865 174.001 30.9726 173.836 30.6456C173.695 30.3187 173.411 30.0968 172.987 29.98C172.585 29.8398 171.936 29.7698 171.04 29.7698C170.969 29.7698 170.933 29.6997 170.933 29.5596C170.933 29.4194 170.969 29.3493 171.04 29.3493L172.774 29.3844C173.765 29.4311 174.568 29.4545 175.181 29.4545C175.701 29.4545 176.184 29.4428 176.633 29.4194C177.081 29.3961 177.459 29.3727 177.765 29.3493C178.662 29.2793 179.453 29.2442 180.137 29.2442ZM183.571 34.8849C183.571 33.0631 183.158 31.7551 182.332 30.961C181.53 30.1668 180.35 29.7698 178.792 29.7698C177.872 29.7698 177.235 29.9333 176.881 30.2603C176.527 30.5873 176.35 31.2529 176.35 32.2573V39.6146C176.916 39.708 177.612 39.7548 178.438 39.7548C180.279 39.7548 181.589 39.3577 182.367 38.5636C183.17 37.7694 183.571 36.5432 183.571 34.8849Z" fill="#2E4028"/>
<path d="M201.867 51.2462C201.82 51.2462 201.796 51.1762 201.796 51.036C201.796 50.8959 201.82 50.8258 201.867 50.8258C202.764 50.8258 203.413 50.7674 203.814 50.6506C204.239 50.5339 204.522 50.312 204.663 49.985C204.829 49.6346 204.911 49.1091 204.911 48.4084V32.1872C204.911 31.4865 204.829 30.9726 204.663 30.6456C204.522 30.3187 204.239 30.0968 203.814 29.98C203.413 29.8398 202.764 29.7698 201.867 29.7698C201.82 29.7698 201.796 29.6997 201.796 29.5596C201.796 29.4194 201.82 29.3493 201.867 29.3493H216.097C216.31 29.3493 216.416 29.4545 216.416 29.6647L216.487 33.974C216.487 34.044 216.416 34.0908 216.274 34.1141C216.156 34.1141 216.097 34.0791 216.097 34.009C216.027 32.7711 215.649 31.8135 214.965 31.1361C214.28 30.4354 213.372 30.0851 212.239 30.0851H210.08C209.254 30.0851 208.64 30.1552 208.239 30.2953C207.838 30.4121 207.554 30.6223 207.389 30.9259C207.248 31.2296 207.177 31.7084 207.177 32.3624V48.2683C207.177 48.8989 207.248 49.3777 207.389 49.7047C207.554 50.0083 207.826 50.2186 208.203 50.3353C208.581 50.4521 209.171 50.5105 209.973 50.5105H212.805C213.938 50.5105 214.882 50.1134 215.637 49.3193C216.392 48.5252 216.9 47.4274 217.159 46.026C217.159 45.9793 217.206 45.956 217.301 45.956C217.372 45.956 217.431 45.9793 217.478 46.026C217.549 46.0494 217.584 46.0727 217.584 46.0961C217.372 47.5676 217.265 49.1091 217.265 50.7207C217.265 50.9076 217.218 51.0477 217.124 51.1411C217.053 51.2112 216.912 51.2462 216.699 51.2462H201.867ZM214.717 43.0831C214.717 42.0554 214.457 41.3197 213.938 40.8759C213.442 40.4321 212.605 40.2102 211.425 40.2102H206.115V39.4745H211.531C212.664 39.4745 213.466 39.2876 213.938 38.9139C214.434 38.5402 214.681 37.9096 214.681 37.022C214.681 36.9753 214.752 36.952 214.894 36.952C215.035 36.952 215.106 36.9753 215.106 37.022L215.071 39.8599C215.071 40.5372 215.083 41.0511 215.106 41.4014L215.142 43.0831C215.142 43.1298 215.071 43.1532 214.929 43.1532C214.788 43.1532 214.717 43.1298 214.717 43.0831Z" fill="#2E4028"/>
<path d="M227.96 51.2462C227.913 51.2462 227.889 51.1762 227.889 51.036C227.889 50.8959 227.913 50.8258 227.96 50.8258C228.857 50.8258 229.506 50.7674 229.907 50.6506C230.332 50.5339 230.615 50.312 230.756 49.985C230.922 49.6346 231.004 49.1091 231.004 48.4084V32.1872C231.004 31.4865 230.922 30.9726 230.756 30.6456C230.615 30.3187 230.332 30.0968 229.907 29.98C229.506 29.8398 228.857 29.7698 227.96 29.7698C227.913 29.7698 227.889 29.6997 227.889 29.5596C227.889 29.4194 227.913 29.3493 227.96 29.3493H242.19C242.403 29.3493 242.509 29.4545 242.509 29.6647L242.58 33.974C242.58 34.044 242.509 34.0908 242.367 34.1141C242.249 34.1141 242.19 34.0791 242.19 34.009C242.119 32.7711 241.742 31.8135 241.057 31.1361C240.373 30.4354 239.465 30.0851 238.332 30.0851H236.172C235.346 30.0851 234.733 30.1552 234.332 30.2953C233.93 30.4121 233.647 30.6223 233.482 30.9259C233.341 31.2296 233.27 31.7084 233.27 32.3624V48.2683C233.27 48.8989 233.341 49.3777 233.482 49.7047C233.647 50.0083 233.919 50.2186 234.296 50.3353C234.674 50.4521 235.264 50.5105 236.066 50.5105H238.898C240.031 50.5105 240.975 50.1134 241.73 49.3193C242.485 48.5252 242.993 47.4274 243.252 46.026C243.252 45.9793 243.299 45.956 243.394 45.956C243.465 45.956 243.524 45.9793 243.571 46.026C243.642 46.0494 243.677 46.0727 243.677 46.0961C243.465 47.5676 243.358 49.1091 243.358 50.7207C243.358 50.9076 243.311 51.0477 243.217 51.1411C243.146 51.2112 243.004 51.2462 242.792 51.2462H227.96ZM240.81 43.0831C240.81 42.0554 240.55 41.3197 240.031 40.8759C239.535 40.4321 238.698 40.2102 237.518 40.2102H232.208V39.4745H237.624C238.757 39.4745 239.559 39.2876 240.031 38.9139C240.527 38.5402 240.774 37.9096 240.774 37.022C240.774 36.9753 240.845 36.952 240.987 36.952C241.128 36.952 241.199 36.9753 241.199 37.022L241.164 39.8599C241.164 40.5372 241.175 41.0511 241.199 41.4014L241.234 43.0831C241.234 43.1298 241.164 43.1532 241.022 43.1532C240.88 43.1532 240.81 43.1298 240.81 43.0831Z" fill="#2E4028"/>
<path d="M257.663 33.4484C257.663 34.3594 257.888 35.1535 258.336 35.8308C258.784 36.5082 259.327 37.0804 259.964 37.5475C260.602 37.9913 261.498 38.5636 262.655 39.2643C263.882 39.9883 264.838 40.5956 265.522 41.0861C266.206 41.5766 266.785 42.2072 267.257 42.978C267.752 43.7254 268 44.6246 268 45.6757C268 46.7968 267.717 47.8128 267.15 48.7237C266.584 49.6346 265.746 50.3587 264.637 50.8959C263.551 51.4097 262.242 51.6667 260.708 51.6667C258.891 51.6667 257.227 51.2579 255.717 50.4404C255.599 50.3704 255.516 50.2886 255.469 50.1952C255.445 50.1018 255.422 49.9616 255.398 49.7748L254.938 45.01C254.914 44.9166 254.961 44.8582 255.079 44.8348C255.221 44.8115 255.304 44.8465 255.327 44.9399C255.681 46.5983 256.377 48.0464 257.416 49.2843C258.454 50.4988 259.823 51.1061 261.522 51.1061C262.702 51.1061 263.693 50.7908 264.495 50.1602C265.321 49.5062 265.734 48.4785 265.734 47.0771C265.734 46.026 265.498 45.1151 265.026 44.3443C264.554 43.5736 263.976 42.9429 263.292 42.4525C262.631 41.9386 261.723 41.343 260.566 40.6657C259.433 39.9883 258.537 39.4044 257.876 38.9139C257.239 38.4234 256.696 37.8045 256.247 37.0571C255.799 36.3096 255.575 35.4338 255.575 34.4294C255.575 33.2616 255.882 32.2689 256.495 31.4515C257.132 30.6106 257.947 29.9917 258.938 29.5946C259.953 29.1742 261.026 28.964 262.159 28.964C263.551 28.964 264.932 29.2442 266.301 29.8048C266.655 29.9216 266.832 30.1201 266.832 30.4004L267.08 34.3944C267.08 34.5112 267.009 34.5696 266.867 34.5696C266.749 34.5696 266.678 34.5229 266.655 34.4294C266.49 33.2149 265.994 32.0938 265.168 31.0661C264.342 30.015 263.15 29.4895 261.593 29.4895C260.271 29.4895 259.28 29.8749 258.619 30.6456C257.982 31.3931 257.663 32.3273 257.663 33.4484Z" fill="#2E4028"/>
</svg>
