<svg width="50" height="50" viewBox="0 0 50 50" fill="none" xmlns="http://www.w3.org/2000/svg">
<path d="M25 2.5C32.4558 2.5 38.5 8.54416 38.5 16C38.5 17.4133 38.2813 18.7763 37.8779 20.0576C36.574 24.552 33.4195 29.0618 30.6572 33.1631C29.2656 35.2293 27.9711 37.193 27.0234 39.0303C26.1321 40.7584 25.5738 42.3271 25.5068 43.7236L25.5 44H24.5C24.4992 42.5351 23.9263 40.8733 22.9756 39.0303C22.0278 37.1931 20.7334 35.2291 19.3418 33.1631C16.5794 29.0619 13.424 24.5528 12.1201 20.0586V20.0576C11.7168 18.7762 11.5 17.4129 11.5 16C11.5 8.54416 17.5442 2.5 25 2.5ZM25 11.5C22.5147 11.5 20.5 13.5147 20.5 16C20.5 18.4853 22.5147 20.5 25 20.5C27.4853 20.5 29.5 18.4853 29.5 16C29.5 13.5147 27.4853 11.5 25 11.5Z" fill="url(#paint0_linear_90_7187)" stroke="#1A1F16"/>
<ellipse cx="25" cy="44.5" rx="13" ry="2.5" fill="url(#paint1_radial_90_7187)" fill-opacity="0.3"/>
<defs>
<linearGradient id="paint0_linear_90_7187" x1="25" y1="3" x2="25" y2="44" gradientUnits="userSpaceOnUse">
<stop stop-color="#6B7A52"/>
<stop offset="1" stop-color="#C4E097"/>
</linearGradient>
<radialGradient id="paint1_radial_90_7187" cx="0" cy="0" r="1" gradientUnits="userSpaceOnUse" gradientTransform="translate(25 44.5) scale(13 2.5)">
<stop/>
<stop offset="1" stop-opacity="0"/>
</radialGradient>
</defs>
</svg>

